<svg width="300" height="225" viewBox="0 0 300 225" fill="none" xmlns="http://www.w3.org/2000/svg">
<circle cx="150" cy="77" r="77" fill="#FDF9EF"/>
<path d="M195.52 49.8329L187.552 46.4261C183.044 44.4995 177.959 44.9056 173.687 46.7534L177.108 37.7636C177.854 35.771 177.684 33.6616 176.623 32.1148C175.719 30.818 174.263 30.0442 172.704 30.0442C171.59 30.0442 170.503 30.4376 169.559 31.1713L156.585 41.21C156.545 41.2494 156.493 41.276 156.454 41.3276H141.488C141.449 41.276 141.396 41.2494 141.357 41.21L128.396 31.1713C127.439 30.4374 126.351 30.0442 125.238 30.0442C123.678 30.0442 122.224 30.818 121.319 32.1148C120.258 33.6616 120.087 35.771 120.847 37.7636L123.928 45.8885C120.218 44.8269 116.156 44.8531 112.46 46.4259L104.492 49.8328C101.924 50.9332 101.229 53.6594 102.933 55.9263L108.241 63.0031C111.504 67.3543 116.641 69.6478 121.62 69.9753L123.705 92.9221C122.643 94.1939 121.883 95.6878 121.516 97.3128L120.651 101.165L120.362 102.411C119.733 105.163 120.232 107.994 121.778 110.392C122.551 111.61 123.573 112.672 124.766 113.524C124.726 114.271 124.857 115.018 125.159 115.712L127.085 120.129C128.317 122.959 131.764 123.955 134.594 123.955H163.36C166.178 123.955 169.638 122.959 170.869 120.129L172.796 115.712C173.097 115.018 173.229 114.271 173.189 113.536C174.355 112.685 175.377 111.623 176.164 110.392C177.71 107.993 178.208 105.163 177.592 102.424L177.304 101.152L176.413 97.3128C176.046 95.6879 175.298 94.2198 174.25 92.9488L176.334 70.0018C181.904 70.2504 188.037 67.9576 191.759 63.0031L197.066 55.9263C198.77 53.6596 198.076 50.9334 195.52 49.8329ZM167.266 118.556C166.886 119.408 165.261 120.024 163.36 120.024H134.594C132.694 120.024 131.069 119.408 130.69 118.556L129.378 115.569C130.296 115.779 131.253 115.883 132.223 115.883H165.732C166.702 115.883 167.659 115.779 168.563 115.582L167.266 118.556ZM132.655 111.951H132.223C130.807 111.951 129.497 111.637 128.344 111.087C127.688 110.785 127.099 110.405 126.574 109.959C125.984 109.461 125.474 108.898 125.08 108.269L124.714 104.193L124.504 101.913L125.355 98.1911C126.116 94.8106 129.484 92.3861 133.376 92.3861H137.713H160.241H164.566C168.472 92.3861 171.813 94.8106 172.586 98.1911L173.438 101.913L173.242 104.167L172.875 108.243C172.861 108.256 172.861 108.269 172.848 108.282C172.455 108.898 171.957 109.461 171.368 109.946C170.844 110.406 170.254 110.785 169.599 111.087C168.459 111.637 167.147 111.951 165.732 111.951H165.287H132.655ZM145.839 72.8722V44.2108H152.103V72.8724C152.103 78.4683 153.781 83.9193 156.913 88.4548H141.042C144.161 83.9191 145.839 78.4681 145.839 72.8722ZM172.704 33.9755C173.477 33.9755 173.923 35.0639 173.425 36.3744L170.175 44.9056C167.803 43.3458 165.13 42.2848 162.325 41.7474L171.957 34.2772C172.232 34.0679 172.482 33.9755 172.704 33.9755ZM166.611 65.9653C166.611 65.9653 166.624 65.9653 166.624 65.9789C167.344 66.2936 167.947 66.8173 168.353 67.4857C168.707 68.0624 168.917 68.7438 168.917 69.4646V71.3253C168.917 73.4225 167.213 75.1256 165.117 75.1256H163.596C161.486 75.1256 159.782 73.4225 159.782 71.3253V69.4646C159.782 67.3674 161.486 65.6643 163.596 65.6643H165.117C165.641 65.6645 166.151 65.7689 166.611 65.9653ZM138.159 71.3255C138.159 73.4227 136.456 75.1258 134.359 75.1258H132.838C130.742 75.1258 129.038 73.4227 129.038 71.3255V69.4648C129.038 69.2684 129.051 69.0714 129.09 68.8751C129.365 67.0537 130.938 65.6645 132.838 65.6645H133.651H134.359C136.456 65.6645 138.159 67.3676 138.159 69.4648V71.3255ZM127.767 44.9056L124.517 36.3744C124.019 35.0639 124.465 33.9755 125.238 33.9755C125.461 33.9755 125.723 34.0679 125.984 34.2772L135.63 41.7474C132.813 42.2848 130.139 43.3458 127.767 44.9056ZM177.514 56.9233C177.54 56.6086 177.554 56.2942 177.554 55.9796C177.554 54.7085 177.317 53.4367 176.846 52.2575C178.405 51.6414 180.712 51.1833 183.188 52.2316L186.321 53.5678C187.933 54.2619 188.378 55.9923 187.304 57.4338L185.22 60.1994C183.66 62.2829 181.577 63.0819 180.109 63.3836C179.034 63.6058 177.933 63.6457 176.924 63.4882L177.514 56.9233ZM120.428 56.9233L121.031 63.5407C120.651 63.5148 120.271 63.4627 119.891 63.3838C118.423 63.0821 116.353 62.2831 114.793 60.1996L112.709 57.434C111.621 55.9925 112.067 54.2621 113.692 53.5679L116.811 52.2318C118.436 51.5368 119.995 51.4974 121.319 51.7338C120.703 53.0707 120.389 54.5122 120.389 55.9798C120.389 56.2942 120.402 56.6088 120.428 56.9233Z" fill="#4E301B"/>
<path d="M133.979 68.0233H133.219C132.17 68.0233 131.319 68.8751 131.319 69.9361V70.8539C131.319 71.915 132.17 72.7541 133.219 72.7541H133.979C135.027 72.7541 135.879 71.9152 135.879 70.8539V69.9361C135.879 68.8751 135.027 68.0233 133.979 68.0233ZM132.669 69.9884C132.669 69.4646 133.101 69.0455 133.625 69.0455H134.005C134.241 69.0455 134.451 69.1243 134.608 69.2683L132.865 71.0109C132.734 70.8669 132.669 70.6698 132.669 70.4606V69.9884H132.669Z" fill="#4E301B"/>
<path d="M162.076 69.9361V70.8539C162.076 71.915 162.915 72.7541 163.976 72.7541H164.736C165.784 72.7541 166.636 71.9152 166.636 70.8539V69.9361C166.636 68.8751 165.785 68.0233 164.736 68.0233H163.976C162.915 68.0233 162.076 68.8751 162.076 69.9361ZM163.162 69.9884C163.162 69.4646 163.595 69.0455 164.119 69.0455H164.499C164.735 69.0455 164.945 69.1243 165.103 69.2683L163.359 71.0109C163.228 70.8669 163.162 70.6698 163.162 70.4606V69.9884H163.162Z" fill="#4E301B"/>
<path d="M142.89 101.127L139.011 99.6588L138.893 96.4216C138.88 96.0283 138.592 95.7009 138.199 95.6221L138.094 95.6092L137.583 95.6356C137.15 95.6486 136.783 95.9759 136.731 96.4087L136.01 103.301C135.958 103.734 136.233 104.128 136.652 104.232L142.523 105.7C142.785 105.753 143.061 105.674 143.257 105.503C143.467 105.32 143.572 105.071 143.559 104.796L143.31 101.809C143.296 101.52 143.139 101.27 142.89 101.127Z" fill="#4E301B"/>
<path d="M160.359 95.6358L159.862 95.6094L159.743 95.6223C159.351 95.7011 159.062 96.0284 159.049 96.4218L158.944 99.659L155.052 101.127C154.803 101.27 154.658 101.52 154.633 101.809L154.397 104.796C154.37 105.071 154.475 105.32 154.685 105.503C154.881 105.674 155.156 105.753 155.419 105.7L161.289 104.232C161.709 104.128 161.984 103.734 161.945 103.301L161.211 96.4087C161.159 95.9761 160.792 95.6487 160.359 95.6358Z" fill="#4E301B"/>
<path d="M36.56 175.48C34.9333 176.573 33.0933 177.573 31.04 178.48C28.9867 179.36 27.0133 180.067 25.12 180.6C24.2933 180.84 23.4267 181.027 22.52 181.16C21.6133 181.32 20.7333 181.467 19.88 181.6C19.56 181.653 19.24 181.707 18.92 181.76C18.6267 181.813 18.32 181.84 18 181.84C17.8933 181.84 17.7467 181.827 17.56 181.8C17.3733 181.773 17.28 181.68 17.28 181.52C17.28 181.333 17.4 181.187 17.64 181.08C17.9067 180.973 18.1733 180.893 18.44 180.84C18.7067 180.76 18.9733 180.667 19.24 180.56C19.5867 180.427 19.92 180.293 20.24 180.16C20.56 180.027 20.8933 179.893 21.24 179.76C23.4 178.88 25.48 177.92 27.48 176.88C29.48 175.813 31.3333 174.467 33.04 172.84C33.6533 173.267 34.24 173.707 34.8 174.16C35.3867 174.587 35.9733 175.027 36.56 175.48ZM41.56 178.68C41.56 178.787 41.4933 178.893 41.36 179C41.2267 179.08 41.12 179.147 41.04 179.2C37.7333 180.933 34.36 182.32 30.92 183.36C27.48 184.427 23.88 184.96 20.12 184.96C20.0133 184.96 19.84 184.96 19.6 184.96C19.36 184.96 19.1333 184.92 18.92 184.84C18.7067 184.787 18.6 184.68 18.6 184.52C18.6 184.413 18.6533 184.32 18.76 184.24C18.8667 184.16 18.96 184.107 19.04 184.08C19.2533 184 19.4667 183.933 19.68 183.88C19.8933 183.853 20.0933 183.813 20.28 183.76C20.6533 183.653 21.04 183.547 21.44 183.44C21.84 183.333 22.2267 183.227 22.6 183.12C24.2267 182.613 25.96 182 27.8 181.28C29.64 180.56 31.4267 179.747 33.16 178.84C34.92 177.933 36.44 176.933 37.72 175.84C37.8267 175.92 38.08 176.093 38.48 176.36C38.88 176.627 39.32 176.933 39.8 177.28C40.28 177.6 40.6933 177.893 41.04 178.16C41.3867 178.427 41.56 178.6 41.56 178.68ZM32.52 172.04C31.64 172.653 30.5867 173.347 29.36 174.12C28.16 174.893 26.88 175.64 25.52 176.36C24.16 177.053 22.8133 177.64 21.48 178.12C20.1733 178.573 18.9867 178.8 17.92 178.8C17.6533 178.8 17.52 178.693 17.52 178.48C17.52 178.373 17.5733 178.293 17.68 178.24C18.24 177.973 18.7867 177.707 19.32 177.44C19.8533 177.173 20.3733 176.88 20.88 176.56C22.4267 175.573 23.88 174.507 25.24 173.36C26.6267 172.213 27.9467 170.987 29.2 169.68L32.52 172.04ZM49.64 175.6C49.64 176.187 49.4 176.613 48.92 176.88C48.44 177.147 47.9467 177.28 47.44 177.28C45.9467 177.28 44.4133 177.027 42.84 176.52C41.2667 175.987 39.72 175.28 38.2 174.4C36.7067 173.52 35.32 172.547 34.04 171.48C32.76 170.387 31.6533 169.293 30.72 168.2C30.2933 168.307 29.8133 168.453 29.28 168.64C28.7467 168.827 28.2933 169.04 27.92 169.28C27.5733 169.493 27.24 169.747 26.92 170.04C26.6267 170.307 26.32 170.573 26 170.84C23.8667 172.493 21.7333 173.893 19.6 175.04C17.4667 176.16 15.08 177.053 12.44 177.72C12.2533 177.773 12.0533 177.813 11.84 177.84C11.6267 177.867 11.4133 177.88 11.2 177.88C11.0933 177.88 10.9867 177.853 10.88 177.8C10.8 177.72 10.76 177.627 10.76 177.52C10.76 177.36 10.7867 177.253 10.84 177.2C10.92 177.147 11.0133 177.093 11.12 177.04C12.88 175.973 14.5467 174.907 16.12 173.84C17.6933 172.773 19.1733 171.6 20.56 170.32C21.9733 169.04 23.3067 167.56 24.56 165.88V164.56C23.4933 165.173 22.4 165.76 21.28 166.32C20.16 166.853 19.0133 167.267 17.84 167.56C17.3333 167.667 16.8133 167.787 16.28 167.92C15.7467 168.027 15.2133 168.08 14.68 168.08C14.6 168.08 14.4933 168.053 14.36 168C14.2533 167.947 14.2 167.867 14.2 167.76C14.2 167.6 14.2667 167.48 14.4 167.4C14.5333 167.293 14.6533 167.213 14.76 167.16C15.2133 166.92 15.6667 166.68 16.12 166.44C16.6 166.2 17.0533 165.933 17.48 165.64C18.5733 164.893 19.6133 164.067 20.6 163.16C21.5867 162.253 22.4933 161.293 23.32 160.28L24.56 161.04V157.64H21.48C21.6133 157.693 21.8667 157.827 22.24 158.04C22.64 158.227 23.0133 158.413 23.36 158.6C23.7333 158.787 23.92 158.933 23.92 159.04C23.92 159.12 23.88 159.187 23.8 159.24C22.5733 160.04 21.1867 160.72 19.64 161.28C18.12 161.84 16.6533 162.28 15.24 162.6C15 162.653 14.7467 162.72 14.48 162.8C14.2133 162.853 13.9467 162.88 13.68 162.88C13.6 162.88 13.4933 162.853 13.36 162.8C13.2533 162.747 13.2 162.667 13.2 162.56C13.2 162.4 13.2533 162.28 13.36 162.2C13.4667 162.12 13.5733 162.053 13.68 162C13.92 161.867 14.16 161.747 14.4 161.64C14.64 161.507 14.88 161.36 15.12 161.2C15.8933 160.693 16.6267 160.147 17.32 159.56C18.0133 158.947 18.68 158.307 19.32 157.64H14.44V155.88H28.96V164.2C29.28 164.307 29.6 164.413 29.92 164.52C30.24 164.6 30.56 164.707 30.88 164.84C30.9867 164.867 31.0667 164.893 31.12 164.92C31.2 164.947 31.24 165.027 31.24 165.16C31.24 165.293 31.1333 165.507 30.92 165.8C30.7333 166.093 30.52 166.387 30.28 166.68C30.0667 166.947 29.9067 167.133 29.8 167.24C29.96 167.16 30.2533 167.04 30.68 166.88C31.1067 166.72 31.56 166.547 32.04 166.36C32.5467 166.147 33 165.973 33.4 165.84C33.8267 165.707 34.1067 165.64 34.24 165.64C34.3733 165.64 34.52 165.693 34.68 165.8C34.7067 165.8 34.8133 165.947 35 166.24C35.2133 166.507 35.4267 166.787 35.64 167.08C35.8533 167.373 35.9733 167.547 36 167.6C36.7733 168.613 37.7067 169.613 38.8 170.6C39.8933 171.587 41.0533 172.493 42.28 173.32C43.5067 174.147 44.6933 174.84 45.84 175.4C46.0267 174.867 46.28 174.48 46.6 174.24C46.92 173.973 47.36 173.84 47.92 173.84C48.32 173.84 48.7067 174.04 49.08 174.44C49.4533 174.813 49.64 175.2 49.64 175.6ZM45.12 166.36H40.52V163.52C39.6933 163.787 38.7867 164.067 37.8 164.36C36.8133 164.653 35.8267 164.907 34.84 165.12C33.8533 165.307 32.9333 165.4 32.08 165.4C31.84 165.4 31.72 165.307 31.72 165.12C31.72 164.987 31.8267 164.867 32.04 164.76C32.2533 164.627 32.4133 164.533 32.52 164.48C33.9333 163.787 35.24 163.08 36.44 162.36C37.6667 161.613 38.84 160.667 39.96 159.52L40.52 159.88V157.6H37.68C37.7867 157.653 38 157.76 38.32 157.92C38.64 158.08 38.9467 158.253 39.24 158.44C39.5333 158.6 39.68 158.733 39.68 158.84C39.68 158.92 39.64 158.987 39.56 159.04C38.7867 159.52 37.8133 160.027 36.64 160.56C35.4933 161.067 34.32 161.493 33.12 161.84C31.92 162.187 30.8533 162.36 29.92 162.36C29.84 162.36 29.7333 162.347 29.6 162.32C29.4933 162.267 29.44 162.187 29.44 162.08C29.44 161.947 29.4933 161.84 29.6 161.76C29.7067 161.68 29.8133 161.613 29.92 161.56C30.9067 161.027 31.8133 160.44 32.64 159.8C33.4667 159.133 34.2667 158.4 35.04 157.6H30.36V155.88H45.12V166.36ZM47.56 150.92C47.56 151.667 47.24 152.2 46.6 152.52C45.96 152.813 45.3333 152.96 44.72 152.96H36.04C35.88 153.2 35.6 153.533 35.2 153.96C34.8 154.36 34.3733 154.72 33.92 155.04C33.4667 155.36 33.08 155.52 32.76 155.52C32.6267 155.52 32.4933 155.467 32.36 155.36C32.2267 155.253 32.16 155.12 32.16 154.96C32.16 154.613 32.16 154.28 32.16 153.96C32.16 153.64 32.1733 153.307 32.2 152.96H26.28L26.4 154.92L21.68 155.16L21.56 152.96H12.64V151.08H21.48L21.28 147.6L26 147.44L26.2 151.08H32.4C32.48 150.44 32.5467 149.813 32.6 149.2C32.6533 148.56 32.72 147.92 32.8 147.28L37.92 147.96C38.0533 147.987 38.16 148.027 38.24 148.08C38.32 148.107 38.36 148.187 38.36 148.32C38.36 148.533 38.28 148.827 38.12 149.2C37.96 149.547 37.7733 149.893 37.56 150.24C37.3733 150.587 37.2133 150.867 37.08 151.08H42.4C42.4533 150.413 42.7067 149.827 43.16 149.32C43.6133 148.787 44.1867 148.52 44.88 148.52C45.6533 148.52 46.2933 148.72 46.8 149.12C47.3067 149.52 47.56 150.12 47.56 150.92ZM68.8 159.8C68.8 160.36 68.5467 160.787 68.04 161.08C67.56 161.347 67.08 161.48 66.6 161.48H63.24V164.8C63.6933 164.587 64.1467 164.373 64.6 164.16C65.0533 163.947 65.5067 163.747 65.96 163.56C66.0133 163.72 66.1333 164.053 66.32 164.56C66.5333 165.067 66.76 165.653 67 166.32C67.2667 166.96 67.52 167.6 67.76 168.24C68.0267 168.853 68.24 169.373 68.4 169.8C68.56 170.227 68.64 170.453 68.64 170.48C68.64 170.667 68.56 170.813 68.4 170.92C68.2667 171 68.12 171.04 67.96 171.04C67.6667 171.04 67.24 170.853 66.68 170.48C66.1467 170.08 65.6133 169.64 65.08 169.16C64.7067 168.813 64.3467 168.48 64 168.16C63.6533 167.813 63.4 167.547 63.24 167.36V183.8H58.56V168.48C58.1067 169.467 57.4533 170.547 56.6 171.72C55.7467 172.893 54.8133 173.973 53.8 174.96C52.7867 175.947 51.76 176.653 50.72 177.08C50.6933 177.107 50.6267 177.12 50.52 177.12C50.4667 177.12 50.4 177.107 50.32 177.08C50.24 177.027 50.2 176.96 50.2 176.88C50.2 176.827 50.24 176.747 50.32 176.64C50.4 176.507 50.4933 176.347 50.6 176.16C50.76 175.84 50.9333 175.507 51.12 175.16C51.3333 174.787 51.4667 174.547 51.52 174.44C52.3733 172.707 53.0933 170.92 53.68 169.08C54.2667 167.24 54.72 165.373 55.04 163.48C55.6267 163.667 56.2133 163.853 56.8 164.04C57.3867 164.227 57.9733 164.4 58.56 164.56V161.48H52.08V159.72H58.56V154.56C57.4933 154.693 56.4267 154.813 55.36 154.92C54.2933 155 53.2133 155.04 52.12 155.04C52.0133 155.04 51.88 155.027 51.72 155C51.56 154.947 51.48 154.84 51.48 154.68C51.48 154.467 51.64 154.32 51.96 154.24C52.1733 154.187 52.4533 154.093 52.8 153.96C53.1733 153.827 53.4267 153.747 53.56 153.72C55.5333 153.027 57.4267 152.213 59.24 151.28C61.0533 150.347 62.8133 149.307 64.52 148.16C64.8667 148.373 65.2933 148.667 65.8 149.04C66.3333 149.413 66.84 149.787 67.32 150.16C67.8 150.507 68.1467 150.76 68.36 150.92C68.4933 151.027 68.56 151.16 68.56 151.32C68.56 151.56 68.28 151.813 67.72 152.08C67.32 152.293 66.8 152.52 66.16 152.76C65.52 152.973 64.92 153.16 64.36 153.32C63.8267 153.48 63.4533 153.587 63.24 153.64V159.72H64.8C64.8 159.187 65.0133 158.747 65.44 158.4C65.8667 158.027 66.3333 157.84 66.84 157.84C67.3733 157.84 67.8267 158.04 68.2 158.44C68.6 158.813 68.8 159.267 68.8 159.8ZM76.16 167.16C76.16 167.4 76.08 167.587 75.92 167.72C75.76 167.827 75.5733 167.88 75.36 167.88C75.2 167.88 75.0667 167.853 74.96 167.8C74.8533 167.747 74.7333 167.68 74.6 167.6C73.5067 166.96 72.3867 166.347 71.24 165.76C70.12 165.173 69.0133 164.573 67.92 163.96C68.08 163.8 68.32 163.56 68.64 163.24C68.9867 162.893 69.3467 162.547 69.72 162.2C70.0933 161.827 70.4 161.507 70.64 161.24C71.12 160.707 71.5467 160.44 71.92 160.44C72.16 160.44 72.4533 160.64 72.8 161.04C73.1467 161.413 73.5067 161.893 73.88 162.48C74.28 163.067 74.6533 163.68 75 164.32C75.3467 164.933 75.6267 165.507 75.84 166.04C76.0533 166.547 76.16 166.92 76.16 167.16ZM89.76 167.04C89.76 167.6 89.5867 168.107 89.24 168.56C88.92 168.987 88.4933 169.267 87.96 169.4L82.8 170.8V184.08H78.2V171.84L67.32 174.6L66.72 172.52L78.2 169.6V149.56H82.8V168.56L84.76 168.04C84.68 167.987 84.6267 167.88 84.6 167.72C84.5733 167.533 84.56 167.387 84.56 167.28C84.56 166.56 84.8267 165.96 85.36 165.48C85.8933 164.973 86.52 164.72 87.24 164.72C87.8533 164.72 88.4267 164.947 88.96 165.4C89.4933 165.853 89.76 166.4 89.76 167.04ZM76.84 158.44C76.84 158.92 76.5733 159.16 76.04 159.16C75.9067 159.16 75.7733 159.133 75.64 159.08C75.5333 159.027 75.4133 158.973 75.28 158.92C74.16 158.333 73.04 157.733 71.92 157.12C70.8267 156.48 69.7333 155.853 68.64 155.24C68.8 155.08 69.0533 154.813 69.4 154.44C69.7467 154.04 70.12 153.627 70.52 153.2C70.9467 152.773 71.3467 152.413 71.72 152.12C72.0933 151.8 72.3733 151.64 72.56 151.64C72.8 151.64 73.0933 151.84 73.44 152.24C73.8133 152.613 74.1867 153.093 74.56 153.68C74.96 154.267 75.3333 154.88 75.68 155.52C76.0267 156.16 76.3067 156.747 76.52 157.28C76.7333 157.813 76.84 158.2 76.84 158.44ZM119.4 175.92C119.4 176.747 119.067 177.453 118.4 178.04C117.76 178.6 117.093 179.04 116.4 179.36C115.04 180 113.587 180.48 112.04 180.8C110.52 181.093 109.013 181.24 107.52 181.24C106.24 181.24 104.96 181.12 103.68 180.88C102.427 180.64 101.24 180.24 100.12 179.68C99 179.12 98.0533 178.373 97.28 177.44C96.5067 176.48 95.9733 175.293 95.68 173.88C95.8667 173.747 96.2 173.507 96.68 173.16C97.1867 172.787 97.6933 172.44 98.2 172.12C98.7067 171.8 99.0533 171.64 99.24 171.64C99.48 171.64 99.64 171.787 99.72 172.08C99.8533 172.48 99.9867 172.867 100.12 173.24C100.253 173.587 100.427 173.947 100.64 174.32C101.493 175.76 102.707 176.867 104.28 177.64C105.853 178.413 107.453 178.8 109.08 178.8C110.173 178.8 111.227 178.72 112.24 178.56C113.28 178.373 114.307 178.107 115.32 177.76C115.133 177.547 114.96 177.293 114.8 177C114.667 176.68 114.6 176.373 114.6 176.08C114.6 175.493 114.84 174.987 115.32 174.56C115.8 174.107 116.32 173.88 116.88 173.88C117.413 173.88 117.96 174.067 118.52 174.44C119.107 174.813 119.4 175.307 119.4 175.92ZM117.32 156.28C117.32 156.92 117.04 157.6 116.48 158.32C115.92 159.013 115.267 159.653 114.52 160.24C113.8 160.827 113.187 161.28 112.68 161.6C112.493 161.733 112.28 161.88 112.04 162.04C111.827 162.173 111.613 162.293 111.4 162.4C111.213 162.48 111 162.52 110.76 162.52C110.573 162.52 110.413 162.48 110.28 162.4C110.147 162.293 110.08 162.147 110.08 161.96C110.08 161.747 110.173 161.44 110.36 161.04C110.547 160.613 110.733 160.16 110.92 159.68C111.107 159.173 111.2 158.72 111.2 158.32C111.2 157.84 111.053 157.507 110.76 157.32C110.493 157.107 110.16 156.973 109.76 156.92C109.387 156.84 109.027 156.787 108.68 156.76C108.333 156.733 107.96 156.72 107.56 156.72C107.187 156.693 106.813 156.68 106.44 156.68C105.053 156.68 103.653 156.747 102.24 156.88C100.853 157.013 99.4667 157.16 98.08 157.32L98.12 154.84C100.973 154.6 103.84 154.48 106.72 154.48C108.32 154.48 109.92 154.533 111.52 154.64C113.147 154.72 114.747 154.933 116.32 155.28C116.533 155.307 116.733 155.387 116.92 155.52C117.187 155.627 117.32 155.88 117.32 156.28ZM124.88 158.44C124.88 158.52 124.827 158.613 124.72 158.72C124.64 158.8 124.547 158.84 124.44 158.84C124.253 158.84 123.933 158.76 123.48 158.6C123.027 158.44 122.52 158.24 121.96 158C121.427 157.76 120.907 157.533 120.4 157.32C119.92 157.107 119.547 156.96 119.28 156.88C119.2 156.853 119.093 156.813 118.96 156.76C118.853 156.707 118.8 156.627 118.8 156.52C118.8 156.36 118.96 156.093 119.28 155.72C119.6 155.32 119.933 154.96 120.28 154.64C120.653 154.293 120.92 154.12 121.08 154.12C121.373 154.12 121.733 154.293 122.16 154.64C122.587 154.96 123 155.373 123.4 155.88C123.827 156.36 124.173 156.84 124.44 157.32C124.733 157.773 124.88 158.147 124.88 158.44ZM127.36 154.72C127.36 154.8 127.307 154.893 127.2 155C127.12 155.08 127.027 155.12 126.92 155.12C126.84 155.12 126.613 155.04 126.24 154.88C125.893 154.693 125.493 154.493 125.04 154.28C124.587 154.04 124.16 153.813 123.76 153.6C123.387 153.387 123.133 153.24 123 153.16C122.893 153.107 122.693 153.04 122.4 152.96C122.133 152.853 121.88 152.733 121.64 152.6C121.4 152.467 121.28 152.347 121.28 152.24C121.28 152.08 121.44 151.813 121.76 151.44C122.08 151.067 122.427 150.72 122.8 150.4C123.2 150.08 123.48 149.92 123.64 149.92C123.96 149.92 124.333 150.107 124.76 150.48C125.187 150.853 125.587 151.32 125.96 151.88C126.36 152.413 126.693 152.947 126.96 153.48C127.227 153.987 127.36 154.4 127.36 154.72ZM162.24 175.04C162.24 175.547 162.04 176.053 161.64 176.56C161.267 177.04 160.813 177.48 160.28 177.88C159.773 178.253 159.32 178.56 158.92 178.8C158.093 179.253 157.093 179.693 155.92 180.12C154.773 180.547 153.6 180.893 152.4 181.16C151.227 181.453 150.16 181.6 149.2 181.6C148.08 181.6 146.893 181.48 145.64 181.24C144.387 181.027 143.2 180.653 142.08 180.12C140.987 179.56 140.093 178.827 139.4 177.92C138.707 176.987 138.36 175.827 138.36 174.44C138.36 173.24 138.667 172.133 139.28 171.12C139.92 170.107 140.733 169.187 141.72 168.36C142.707 167.533 143.747 166.8 144.84 166.16C145.933 165.52 146.947 164.973 147.88 164.52C147.4 164.147 147.013 163.707 146.72 163.2C146.427 162.667 146.2 162.107 146.04 161.52C145.933 161.147 145.84 160.773 145.76 160.4C145.707 160.027 145.653 159.653 145.6 159.28C145.413 157.813 145.24 156.347 145.08 154.88C144.947 153.413 144.813 151.947 144.68 150.48L149.48 150.2C149.533 151.347 149.573 152.493 149.6 153.64C149.627 154.787 149.667 155.947 149.72 157.12C149.747 157.707 149.773 158.307 149.8 158.92C149.827 159.507 149.893 160.107 150 160.72C150.027 160.853 150.08 161.08 150.16 161.4C150.267 161.693 150.4 161.973 150.56 162.24C150.72 162.48 150.893 162.6 151.08 162.6C151.24 162.6 151.507 162.493 151.88 162.28C152.253 162.04 152.627 161.813 153 161.6C153.4 161.387 153.72 161.28 153.96 161.28C154.2 161.28 154.373 161.32 154.48 161.4C154.613 161.48 154.773 161.6 154.96 161.76C155.147 161.92 155.387 162.173 155.68 162.52C155.973 162.84 156.227 163.187 156.44 163.56C156.68 163.907 156.8 164.213 156.8 164.48C156.8 164.907 156.64 165.187 156.32 165.32C156.027 165.453 155.693 165.52 155.32 165.52C155.133 165.52 154.947 165.52 154.76 165.52C154.6 165.493 154.427 165.48 154.24 165.48C153.147 165.48 151.92 165.653 150.56 166C149.2 166.347 147.893 166.867 146.64 167.56C145.413 168.253 144.387 169.107 143.56 170.12C142.76 171.107 142.36 172.253 142.36 173.56C142.36 174.787 142.747 175.8 143.52 176.6C144.293 177.373 145.227 177.947 146.32 178.32C147.44 178.693 148.52 178.88 149.56 178.88C151.053 178.88 152.627 178.693 154.28 178.32C155.96 177.947 157.48 177.44 158.84 176.8C157.987 176.507 157.56 175.893 157.56 174.96C157.56 174.4 157.813 173.933 158.32 173.56C158.853 173.16 159.387 172.96 159.92 172.96C160.507 172.96 161.04 173.16 161.52 173.56C162 173.933 162.24 174.427 162.24 175.04ZM199.84 167.48C199.84 169.453 199.413 171.293 198.56 173C197.707 174.68 196.587 176.2 195.2 177.56C193.973 178.787 192.653 179.773 191.24 180.52C189.827 181.267 188.32 181.933 186.72 182.52C186.453 182.6 186.027 182.733 185.44 182.92C184.88 183.107 184.32 183.28 183.76 183.44C183.2 183.6 182.8 183.68 182.56 183.68C182.453 183.68 182.333 183.64 182.2 183.56C182.067 183.507 182 183.413 182 183.28C182 183.12 182.067 182.987 182.2 182.88C182.333 182.773 182.453 182.707 182.56 182.68C183.093 182.467 183.707 182.2 184.4 181.88C185.093 181.56 185.707 181.227 186.24 180.88C187.787 179.893 189.213 178.733 190.52 177.4C191.853 176.04 192.92 174.52 193.72 172.84C194.52 171.16 194.92 169.373 194.92 167.48C194.92 166.573 194.773 165.653 194.48 164.72C194.213 163.76 193.76 162.96 193.12 162.32C192.48 161.68 191.613 161.36 190.52 161.36C189.773 161.36 188.88 161.573 187.84 162C186.827 162.427 185.827 162.947 184.84 163.56C183.88 164.147 183.107 164.68 182.52 165.16C182.387 165.267 182.24 165.373 182.08 165.48C181.92 165.587 181.733 165.64 181.52 165.64C181.253 165.64 181.067 165.56 180.96 165.4C180.88 165.213 180.813 165.027 180.76 164.84C180.627 164.387 180.533 163.893 180.48 163.36C180.453 162.827 180.413 162.32 180.36 161.84C182.013 161.04 183.707 160.413 185.44 159.96C187.173 159.507 188.96 159.28 190.8 159.28C193.493 159.28 195.667 159.933 197.32 161.24C199 162.547 199.84 164.627 199.84 167.48ZM194.6 155.92C194.6 156.16 194.467 156.307 194.2 156.36C193.933 156.387 193.72 156.4 193.56 156.4C192.947 156.4 192.333 156.36 191.72 156.28C191.133 156.173 190.533 156.053 189.92 155.92C189.707 155.867 189.28 155.733 188.64 155.52C188.027 155.307 187.36 155.067 186.64 154.8C185.947 154.507 185.347 154.227 184.84 153.96C184.333 153.667 184.08 153.413 184.08 153.2C184.08 153.12 184.187 152.933 184.4 152.64C184.613 152.32 184.867 151.987 185.16 151.64C185.48 151.267 185.773 150.933 186.04 150.64C186.307 150.347 186.48 150.16 186.56 150.08C186.773 149.92 187 149.84 187.24 149.84C187.4 149.84 187.533 149.88 187.64 149.96C187.827 150.067 188.067 150.28 188.36 150.6C188.653 150.893 188.88 151.12 189.04 151.28C189.707 152.027 190.44 152.707 191.24 153.32C192.067 153.907 192.893 154.467 193.72 155C193.88 155.107 194.067 155.227 194.28 155.36C194.493 155.493 194.6 155.68 194.6 155.92ZM226.88 172.36L226.8 180.04C227.813 179.907 228.813 179.707 229.8 179.44C230.813 179.173 231.8 178.867 232.76 178.52C232.227 177.907 231.72 177.28 231.24 176.64C230.76 176 230.293 175.347 229.84 174.68C230.96 174.307 232.08 173.933 233.2 173.56C234.32 173.187 235.427 172.787 236.52 172.36H226.88ZM224.28 159.72V157.08H221.32V159.72H224.28ZM224.28 155.44V152.92H221.32V155.44H224.28ZM231.24 159.72V157.08H228.64V159.72H231.24ZM231.24 155.44V152.92H228.64V155.44H231.24ZM238.96 152.92H235.64V155.44H235.84C235.92 155.147 236.08 154.92 236.32 154.76C236.587 154.573 236.867 154.48 237.16 154.48C237.533 154.48 237.84 154.613 238.08 154.88C238.32 155.12 238.44 155.427 238.44 155.8C238.44 156.307 238.28 156.653 237.96 156.84C237.64 157 237.267 157.08 236.84 157.08C236.413 157.08 236.013 157.08 235.64 157.08V159.72H236.2C237.133 159.72 237.827 159.467 238.28 158.96C238.733 158.427 238.96 157.707 238.96 156.8V152.92ZM247.72 182.92C247.72 183.373 247.52 183.76 247.12 184.08C246.747 184.427 246.333 184.6 245.88 184.6C243.453 184.6 241.28 184.16 239.36 183.28C237.467 182.427 235.653 181.187 233.92 179.56C232.373 181.027 230.587 182.08 228.56 182.72C226.533 183.36 224.493 183.827 222.44 184.12L222.52 172.36H220.48C220.213 174.467 219.653 176.427 218.8 178.24C217.947 180.027 216.64 181.587 214.88 182.92C214.533 183.187 214.067 183.467 213.48 183.76C212.893 184.08 212.373 184.24 211.92 184.24C211.813 184.24 211.72 184.187 211.64 184.08C211.587 184 211.56 183.92 211.56 183.84C211.56 183.787 211.667 183.613 211.88 183.32C212.12 183.053 212.36 182.76 212.6 182.44C212.867 182.12 213.027 181.907 213.08 181.8C214.413 179.827 215.253 177.707 215.6 175.44C215.973 173.173 216.16 170.867 216.16 168.52C216.16 167.613 216.147 166.72 216.12 165.84C216.12 164.933 216.107 164.027 216.08 163.12H242C242.027 162.507 242.227 161.973 242.6 161.52C243 161.04 243.52 160.8 244.16 160.8C244.773 160.8 245.32 160.973 245.8 161.32C246.307 161.64 246.56 162.133 246.56 162.8C246.56 163.52 246.333 164.04 245.88 164.36C245.453 164.68 244.907 164.84 244.24 164.84H220.8C220.8 165.507 220.8 166.173 220.8 166.84C220.827 167.507 220.84 168.187 220.84 168.88C220.84 169.147 220.827 169.427 220.8 169.72C220.8 169.987 220.787 170.267 220.76 170.56H242.72C242.773 170.027 243 169.573 243.4 169.2C243.827 168.827 244.307 168.64 244.84 168.64C245.373 168.64 245.867 168.813 246.32 169.16C246.773 169.48 247 169.92 247 170.48C247 171.013 246.8 171.467 246.4 171.84C246.027 172.187 245.573 172.36 245.04 172.36H240.6C240.707 172.44 240.907 172.613 241.2 172.88C241.493 173.147 241.773 173.413 242.04 173.68C242.307 173.947 242.44 174.133 242.44 174.24C242.44 174.427 242.32 174.587 242.08 174.72C242.027 174.747 241.707 174.787 241.12 174.84C240.533 174.893 239.84 174.947 239.04 175C238.267 175.053 237.547 175.107 236.88 175.16C236.213 175.187 235.773 175.213 235.56 175.24C236.547 176.787 237.747 178.24 239.16 179.6C240.6 180.96 242.133 182.067 243.76 182.92V182.88C243.867 182.347 244.093 181.893 244.44 181.52C244.813 181.173 245.293 181 245.88 181C246.413 181 246.853 181.187 247.2 181.56C247.547 181.933 247.72 182.387 247.72 182.92ZM240.76 167C240.76 167.507 240.573 167.907 240.2 168.2C239.853 168.467 239.44 168.6 238.96 168.6H223.56V166.88H237.28C237.36 166.48 237.573 166.147 237.92 165.88C238.267 165.613 238.64 165.48 239.04 165.48C239.44 165.48 239.827 165.627 240.2 165.92C240.573 166.213 240.76 166.573 240.76 167ZM243.64 157C243.64 158.253 243.333 159.187 242.72 159.8C242.107 160.387 241.333 160.773 240.4 160.96C239.467 161.147 238.493 161.24 237.48 161.24H216.84V151.2H224.28V147.76H228.64V151.2H231.24V147.8H235.64V151.2H243.64V157ZM273.52 165.4H265.28V168.36H271.92C272.507 168.36 272.92 168.187 273.16 167.84C273.4 167.493 273.52 167.053 273.52 166.52V165.4ZM280.32 177.04C280.32 177.44 280.16 177.8 279.84 178.12C279.547 178.44 279.187 178.6 278.76 178.6C277.933 178.6 277.053 178.32 276.12 177.76C275.187 177.2 274.32 176.547 273.52 175.8C272.72 175.027 272.067 174.333 271.56 173.72V179.76H267.16V173.12C266.093 174.133 264.907 175.013 263.6 175.76C262.32 176.507 260.947 177.027 259.48 177.32C259.453 177.32 259.413 177.333 259.36 177.36C259.307 177.36 259.253 177.36 259.2 177.36C259.12 177.36 259.027 177.347 258.92 177.32C258.84 177.267 258.8 177.187 258.8 177.08C258.8 176.92 258.893 176.773 259.08 176.64C260.387 175.68 261.587 174.653 262.68 173.56C263.773 172.44 264.747 171.2 265.6 169.84H261.16V163.84H277.76V166.4C277.76 167.493 277.36 168.347 276.56 168.96C275.787 169.547 274.893 169.84 273.88 169.84H271.56V172.64C272.653 172.107 273.733 171.547 274.8 170.96C275.867 170.347 276.88 169.667 277.84 168.92C278 169.053 278.28 169.293 278.68 169.64C279.08 169.987 279.453 170.347 279.8 170.72C280.147 171.093 280.32 171.373 280.32 171.56C280.32 171.747 280.253 171.88 280.12 171.96C280.013 172.04 279.72 172.12 279.24 172.2C278.76 172.253 278.213 172.32 277.6 172.4C277.013 172.453 276.453 172.507 275.92 172.56C275.413 172.613 275.053 172.653 274.84 172.68C275.133 173.293 275.533 174 276.04 174.8C276.573 175.6 277.08 176.253 277.56 176.76C277.667 176.467 277.84 176.227 278.08 176.04C278.347 175.827 278.64 175.72 278.96 175.72C279.333 175.72 279.653 175.853 279.92 176.12C280.187 176.36 280.32 176.667 280.32 177.04ZM280.2 160.32C280.2 160.853 280.027 161.28 279.68 161.6C279.333 161.92 278.893 162.08 278.36 162.08H259.44V160.44H267.2V157.72H261.52V156.04H267.2V153.04H271.6V156.04H274C274 155.507 274.187 155.067 274.56 154.72C274.96 154.347 275.427 154.16 275.96 154.16C276.413 154.16 276.84 154.347 277.24 154.72C277.64 155.093 277.84 155.507 277.84 155.96C277.84 156.493 277.627 156.92 277.2 157.24C276.8 157.56 276.347 157.72 275.84 157.72H271.6V160.44H276.44C276.493 159.907 276.693 159.467 277.04 159.12C277.387 158.747 277.827 158.56 278.36 158.56C278.84 158.56 279.267 158.733 279.64 159.08C280.013 159.427 280.2 159.84 280.2 160.32ZM281.16 152.32H258.72L258.64 181H276.44C277.72 181 278.693 180.707 279.36 180.12C280.053 179.507 280.52 178.72 280.76 177.76C281.027 176.773 281.16 175.747 281.16 174.68V152.32ZM286 174.4C286 177.573 285.28 179.813 283.84 181.12C282.4 182.453 280.107 183.12 276.96 183.12H254.08L254.16 150.16H286V174.4Z" fill="#4E301B"/>
<path d="M88.048 199.37C88.048 199.501 87.992 199.566 87.88 199.566C87.8427 199.566 87.81 199.566 87.782 199.566C87.754 199.557 87.7307 199.533 87.712 199.496C87.7027 199.477 87.6887 199.435 87.67 199.37C87.6607 199.295 87.656 199.244 87.656 199.216C87.6093 198.936 87.5393 198.628 87.446 198.292C87.362 197.947 87.2267 197.667 87.04 197.452C86.9467 197.34 86.788 197.265 86.564 197.228C86.34 197.191 86.1113 197.172 85.878 197.172C85.6447 197.172 85.4627 197.172 85.332 197.172C85.192 197.172 85.0193 197.172 84.814 197.172C84.618 197.172 84.4407 197.209 84.282 197.284C84.1327 197.359 84.058 197.508 84.058 197.732C84.058 199.141 84.0627 200.555 84.072 201.974C84.0907 203.383 84.1 204.797 84.1 206.216C84.1 206.337 84.1513 206.431 84.254 206.496C84.3567 206.552 84.4733 206.589 84.604 206.608C84.7347 206.627 84.842 206.636 84.926 206.636C85.0007 206.636 85.066 206.636 85.122 206.636C85.1873 206.627 85.2527 206.622 85.318 206.622C85.4113 206.622 85.458 206.664 85.458 206.748C85.458 206.785 85.458 206.841 85.458 206.916C85.458 206.981 85.4253 207.014 85.36 207.014C85.024 207.014 84.688 207.009 84.352 207C84.0253 206.981 83.694 206.972 83.358 206.972C82.91 206.972 82.4527 206.986 81.986 207.014C81.8833 207.014 81.776 207.019 81.664 207.028C81.552 207.037 81.4447 207.042 81.342 207.042C81.258 207.042 81.216 206.991 81.216 206.888C81.216 206.776 81.23 206.706 81.258 206.678C81.286 206.65 81.3513 206.636 81.454 206.636C81.4727 206.636 81.4913 206.641 81.51 206.65C81.538 206.65 81.5567 206.65 81.566 206.65C81.6687 206.65 81.7993 206.641 81.958 206.622C82.1167 206.603 82.2567 206.566 82.378 206.51C82.5087 206.445 82.574 206.347 82.574 206.216C82.5833 205.497 82.588 204.779 82.588 204.06C82.5973 203.341 82.602 202.623 82.602 201.904C82.602 201.195 82.5973 200.49 82.588 199.79C82.5787 199.081 82.574 198.371 82.574 197.662C82.574 197.55 82.5273 197.447 82.434 197.354C82.35 197.261 82.2567 197.209 82.154 197.2C82.07 197.181 81.9813 197.172 81.888 197.172C81.804 197.172 81.7153 197.172 81.622 197.172H80.376C80.04 197.172 79.788 197.256 79.62 197.424C79.4613 197.583 79.3493 197.793 79.284 198.054C79.2187 198.306 79.158 198.567 79.102 198.838C79.102 198.857 79.088 198.922 79.06 199.034C79.0413 199.137 79.018 199.239 78.99 199.342C78.9713 199.435 78.9573 199.487 78.948 199.496C78.9107 199.543 78.8547 199.566 78.78 199.566C78.6773 199.566 78.626 199.515 78.626 199.412C78.626 199.375 78.626 199.328 78.626 199.272C78.6353 199.207 78.6447 199.132 78.654 199.048C78.6727 198.833 78.6867 198.577 78.696 198.278C78.7147 197.97 78.7287 197.685 78.738 197.424C78.7473 197.331 78.752 197.237 78.752 197.144C78.752 197.051 78.7567 196.967 78.766 196.892C78.766 196.761 78.8453 196.705 79.004 196.724C79.6853 196.789 80.3713 196.822 81.062 196.822C81.762 196.813 82.4527 196.808 83.134 196.808H84.324C84.7067 196.808 85.0893 196.808 85.472 196.808C85.864 196.799 86.256 196.789 86.648 196.78C86.816 196.771 86.9887 196.766 87.166 196.766C87.3527 196.757 87.5347 196.752 87.712 196.752C87.8333 196.752 87.9033 196.799 87.922 196.892C87.9313 196.92 87.9407 197.023 87.95 197.2C87.9593 197.368 87.9687 197.564 87.978 197.788C87.9873 198.003 87.992 198.208 87.992 198.404C88.0013 198.591 88.006 198.721 88.006 198.796C88.0153 198.889 88.0247 198.983 88.034 199.076C88.0433 199.169 88.048 199.267 88.048 199.37ZM93.234 205.362C93.1967 204.942 93.1733 204.522 93.164 204.102C93.164 203.673 93.1593 203.243 93.15 202.814H92.954C92.6647 202.814 92.3427 202.861 91.988 202.954C91.6427 203.038 91.3113 203.169 90.994 203.346C90.6767 203.523 90.4153 203.747 90.21 204.018C90.014 204.279 89.916 204.583 89.916 204.928C89.916 205.376 90.042 205.717 90.294 205.95C90.546 206.174 90.8867 206.286 91.316 206.286C91.5213 206.286 91.7453 206.239 91.988 206.146C92.2307 206.043 92.464 205.922 92.688 205.782C92.912 205.642 93.094 205.502 93.234 205.362ZM95.684 206.258C95.684 206.295 95.6793 206.323 95.67 206.342C95.5767 206.547 95.418 206.706 95.194 206.818C94.9793 206.921 94.7647 206.972 94.55 206.972C94.158 206.972 93.8733 206.86 93.696 206.636C93.528 206.403 93.3927 206.118 93.29 205.782C92.9353 206.109 92.5433 206.384 92.114 206.608C91.6847 206.823 91.2227 206.93 90.728 206.93C90.3827 206.93 90.056 206.865 89.748 206.734C89.4493 206.594 89.2067 206.393 89.02 206.132C88.8333 205.871 88.74 205.553 88.74 205.18C88.74 204.788 88.838 204.452 89.034 204.172C89.2393 203.883 89.496 203.64 89.804 203.444C90.1213 203.239 90.4573 203.075 90.812 202.954C91.176 202.823 91.5167 202.725 91.834 202.66C92.0487 202.613 92.268 202.571 92.492 202.534C92.716 202.497 92.9353 202.459 93.15 202.422C93.15 202.161 93.136 201.857 93.108 201.512C93.0893 201.167 93.0193 200.882 92.898 200.658C92.7767 200.443 92.6133 200.252 92.408 200.084C92.2027 199.916 91.974 199.832 91.722 199.832C91.2927 199.832 90.9567 199.944 90.714 200.168C90.4713 200.392 90.2987 200.709 90.196 201.12C90.1867 201.167 90.1773 201.218 90.168 201.274C90.168 201.321 90.1633 201.367 90.154 201.414C90.1447 201.47 90.1073 201.521 90.042 201.568C89.986 201.605 89.9253 201.624 89.86 201.624C89.6827 201.624 89.5193 201.582 89.37 201.498C89.23 201.414 89.16 201.274 89.16 201.078C89.16 200.966 89.1787 200.868 89.216 200.784C89.3373 200.495 89.5333 200.257 89.804 200.07C90.0747 199.874 90.3733 199.725 90.7 199.622C91.036 199.519 91.3487 199.468 91.638 199.468C92.142 199.468 92.5993 199.561 93.01 199.748C93.4207 199.935 93.7473 200.21 93.99 200.574C94.242 200.929 94.368 201.377 94.368 201.918C94.368 202.525 94.3633 203.136 94.354 203.752C94.354 204.368 94.3727 204.984 94.41 205.6C94.4193 205.805 94.4613 205.987 94.536 206.146C94.6107 206.295 94.7647 206.37 94.998 206.37C95.1193 206.37 95.2453 206.342 95.376 206.286C95.516 206.221 95.6047 206.188 95.642 206.188C95.67 206.188 95.684 206.211 95.684 206.258ZM100.877 206.356C100.877 206.44 100.812 206.524 100.681 206.608C100.56 206.692 100.411 206.767 100.233 206.832C100.056 206.897 99.8833 206.949 99.7153 206.986C99.5566 207.023 99.4399 207.042 99.3653 207.042C98.8799 207.042 98.5019 206.981 98.2313 206.86C97.9699 206.739 97.7833 206.538 97.6713 206.258C97.5686 205.978 97.5173 205.6 97.5173 205.124C97.5173 204.349 97.5173 203.575 97.5173 202.8C97.5266 202.016 97.5359 201.237 97.5453 200.462H96.5373C96.4719 200.462 96.4159 200.481 96.3693 200.518C96.3319 200.546 96.2899 200.56 96.2432 200.56C96.1966 200.56 96.1733 200.527 96.1733 200.462C96.1733 200.425 96.1966 200.35 96.2432 200.238C96.2993 200.126 96.3366 200.051 96.3553 200.014C96.3833 200.023 96.4253 200.028 96.4813 200.028H97.5733L97.5873 198.25C97.8019 198.11 97.9979 197.956 98.1753 197.788C98.3526 197.611 98.5299 197.433 98.7073 197.256C98.7259 197.237 98.7446 197.223 98.7633 197.214C98.7819 197.195 98.8006 197.186 98.8193 197.186C98.9033 197.186 98.9453 197.219 98.9453 197.284L98.8613 200.014C99.1599 200.014 99.4539 200.009 99.7433 200C100.042 199.991 100.336 199.986 100.625 199.986C100.747 199.986 100.807 200.056 100.807 200.196C100.807 200.373 100.728 200.462 100.569 200.462H98.8613C98.8613 201.171 98.8566 201.885 98.8473 202.604C98.8473 203.313 98.8473 204.027 98.8473 204.746V205.824C98.8473 206.057 98.9453 206.221 99.1413 206.314C99.3373 206.398 99.5286 206.44 99.7153 206.44C99.9766 206.44 100.233 206.398 100.485 206.314C100.513 206.295 100.555 206.277 100.611 206.258C100.667 206.239 100.709 206.23 100.737 206.23C100.831 206.23 100.877 206.272 100.877 206.356ZM106.702 202.086C106.693 201.703 106.66 201.339 106.604 200.994C106.548 200.639 106.413 200.35 106.198 200.126C105.984 199.893 105.634 199.776 105.148 199.776C104.71 199.776 104.35 199.897 104.07 200.14C103.8 200.373 103.59 200.672 103.44 201.036C103.291 201.391 103.179 201.755 103.104 202.128C103.338 202.137 103.566 202.147 103.79 202.156C104.014 202.156 104.238 202.156 104.462 202.156C104.836 202.156 105.209 202.151 105.582 202.142C105.956 202.123 106.329 202.105 106.702 202.086ZM108.312 205.292C108.312 205.339 108.303 205.367 108.284 205.376C108.256 205.469 108.186 205.581 108.074 205.712C107.972 205.843 107.855 205.969 107.724 206.09C107.594 206.202 107.486 206.286 107.402 206.342C107.094 206.557 106.744 206.729 106.352 206.86C105.97 206.991 105.587 207.056 105.204 207.056C104.887 207.056 104.532 207.005 104.14 206.902C103.758 206.799 103.431 206.659 103.16 206.482C102.638 206.137 102.255 205.684 102.012 205.124C101.77 204.564 101.648 203.981 101.648 203.374C101.648 202.683 101.784 202.044 102.054 201.456C102.325 200.868 102.759 200.392 103.356 200.028C103.627 199.869 103.93 199.739 104.266 199.636C104.602 199.524 104.924 199.468 105.232 199.468C105.783 199.468 106.268 199.58 106.688 199.804C107.108 200.028 107.435 200.345 107.668 200.756C107.911 201.157 108.032 201.638 108.032 202.198C108.032 202.357 107.995 202.459 107.92 202.506C107.855 202.553 107.752 202.576 107.612 202.576C107.426 202.576 107.239 202.571 107.052 202.562C106.866 202.553 106.679 202.543 106.492 202.534C106.231 202.515 105.97 202.506 105.708 202.506C105.456 202.506 105.2 202.506 104.938 202.506C104.621 202.506 104.304 202.506 103.986 202.506C103.669 202.506 103.352 202.515 103.034 202.534C103.025 202.683 103.016 202.828 103.006 202.968C102.997 203.108 102.992 203.253 102.992 203.402C102.992 203.747 103.034 204.107 103.118 204.48C103.202 204.844 103.338 205.185 103.524 205.502C103.711 205.81 103.949 206.062 104.238 206.258C104.528 206.445 104.878 206.538 105.288 206.538C105.708 206.538 106.11 206.473 106.492 206.342C106.875 206.211 107.225 206.001 107.542 205.712C107.626 205.628 107.701 205.539 107.766 205.446C107.841 205.343 107.92 205.255 108.004 205.18C108.051 205.133 108.102 205.11 108.158 205.11C108.205 205.11 108.242 205.129 108.27 205.166C108.298 205.203 108.312 205.245 108.312 205.292ZM114.415 204.998C114.415 205.418 114.322 205.763 114.135 206.034C113.948 206.295 113.706 206.496 113.407 206.636C113.108 206.776 112.782 206.874 112.427 206.93C112.072 206.986 111.727 207.014 111.391 207.014C111.083 207.014 110.775 206.981 110.467 206.916C110.168 206.851 109.865 206.804 109.557 206.776C109.492 206.524 109.426 206.272 109.361 206.02C109.305 205.768 109.24 205.521 109.165 205.278C109.156 205.25 109.132 205.185 109.095 205.082C109.067 204.979 109.053 204.923 109.053 204.914C109.053 204.839 109.076 204.788 109.123 204.76C109.17 204.723 109.226 204.704 109.291 204.704C109.356 204.704 109.403 204.727 109.431 204.774C109.487 204.839 109.534 204.928 109.571 205.04C109.618 205.152 109.66 205.25 109.697 205.334C109.772 205.483 109.837 205.6 109.893 205.684C109.949 205.759 110.038 205.857 110.159 205.978C110.523 206.361 110.976 206.552 111.517 206.552C111.816 206.552 112.086 206.519 112.329 206.454C112.581 206.389 112.782 206.267 112.931 206.09C113.08 205.903 113.155 205.637 113.155 205.292C113.155 204.993 113.062 204.746 112.875 204.55C112.688 204.345 112.446 204.163 112.147 204.004C111.858 203.845 111.55 203.691 111.223 203.542C110.896 203.393 110.584 203.229 110.285 203.052C109.996 202.865 109.758 202.641 109.571 202.38C109.384 202.119 109.291 201.801 109.291 201.428C109.291 200.971 109.408 200.597 109.641 200.308C109.884 200.019 110.192 199.804 110.565 199.664C110.938 199.515 111.326 199.44 111.727 199.44C111.988 199.44 112.222 199.473 112.427 199.538C112.642 199.603 112.866 199.678 113.099 199.762C113.174 199.79 113.248 199.809 113.323 199.818C113.398 199.827 113.472 199.832 113.547 199.832C113.594 199.832 113.636 199.832 113.673 199.832C113.71 199.832 113.748 199.827 113.785 199.818C113.813 199.986 113.836 200.159 113.855 200.336C113.883 200.504 113.906 200.677 113.925 200.854C113.934 200.919 113.944 200.999 113.953 201.092C113.972 201.176 113.981 201.255 113.981 201.33C113.981 201.395 113.967 201.465 113.939 201.54C113.911 201.605 113.855 201.638 113.771 201.638C113.706 201.638 113.65 201.633 113.603 201.624C113.566 201.605 113.533 201.563 113.505 201.498C113.458 201.405 113.416 201.307 113.379 201.204C113.351 201.092 113.318 200.989 113.281 200.896C113.16 200.569 112.95 200.308 112.651 200.112C112.352 199.907 112.03 199.804 111.685 199.804C111.246 199.804 110.915 199.935 110.691 200.196C110.467 200.448 110.355 200.789 110.355 201.218C110.355 201.367 110.392 201.512 110.467 201.652C110.551 201.792 110.644 201.913 110.747 202.016C110.943 202.203 111.172 202.347 111.433 202.45C111.704 202.553 111.96 202.655 112.203 202.758C112.52 202.898 112.847 203.066 113.183 203.262C113.528 203.458 113.818 203.696 114.051 203.976C114.294 204.256 114.415 204.597 114.415 204.998ZM123.631 206.846C123.631 206.893 123.608 206.93 123.561 206.958C123.515 206.977 123.468 206.986 123.421 206.986C123.188 206.986 122.95 206.981 122.707 206.972C122.474 206.953 122.236 206.944 121.993 206.944C121.723 206.944 121.447 206.953 121.167 206.972C120.897 206.991 120.626 207 120.355 207C120.309 207 120.276 206.972 120.257 206.916C120.248 206.851 120.243 206.799 120.243 206.762C120.243 206.697 120.276 206.664 120.341 206.664C120.444 206.664 120.542 206.669 120.635 206.678C120.738 206.678 120.836 206.678 120.929 206.678C121.051 206.678 121.144 206.641 121.209 206.566C121.284 206.482 121.326 206.384 121.335 206.272C121.354 206.039 121.359 205.805 121.349 205.572C121.349 205.339 121.349 205.11 121.349 204.886C121.349 204.606 121.349 204.331 121.349 204.06C121.349 203.78 121.349 203.5 121.349 203.22C121.349 202.94 121.349 202.66 121.349 202.38C121.349 202.1 121.34 201.82 121.321 201.54C121.312 201.419 121.298 201.302 121.279 201.19C121.27 201.069 121.247 200.952 121.209 200.84C121.116 200.588 120.962 200.397 120.747 200.266C120.542 200.126 120.304 200.056 120.033 200.056C119.716 200.056 119.403 200.14 119.095 200.308C118.787 200.467 118.531 200.667 118.325 200.91C118.101 201.171 117.938 201.4 117.835 201.596C117.733 201.792 117.667 201.997 117.639 202.212C117.621 202.427 117.611 202.707 117.611 203.052V205.516C117.611 205.619 117.607 205.763 117.597 205.95C117.597 206.137 117.621 206.305 117.667 206.454C117.723 206.603 117.831 206.678 117.989 206.678C118.083 206.678 118.171 206.673 118.255 206.664C118.339 206.655 118.428 206.65 118.521 206.65C118.605 206.65 118.647 206.697 118.647 206.79C118.647 206.837 118.638 206.883 118.619 206.93C118.61 206.967 118.577 206.986 118.521 206.986C118.204 206.986 117.877 206.981 117.541 206.972C117.215 206.953 116.888 206.944 116.561 206.944C116.263 206.944 115.959 206.958 115.651 206.986C115.614 206.986 115.581 206.991 115.553 207C115.525 207 115.493 207 115.455 207C115.409 207 115.371 206.977 115.343 206.93C115.325 206.874 115.315 206.827 115.315 206.79C115.315 206.687 115.367 206.636 115.469 206.636C115.525 206.636 115.581 206.641 115.637 206.65C115.693 206.65 115.754 206.65 115.819 206.65C115.95 206.65 116.085 206.631 116.225 206.594C116.375 206.547 116.454 206.44 116.463 206.272C116.482 205.964 116.487 205.656 116.477 205.348C116.477 205.04 116.477 204.737 116.477 204.438C116.477 203.859 116.477 203.285 116.477 202.716C116.487 202.147 116.491 201.577 116.491 201.008C116.491 200.411 116.487 199.818 116.477 199.23C116.468 198.633 116.459 198.035 116.449 197.438C116.449 197.335 116.431 197.223 116.393 197.102C116.356 196.971 116.272 196.906 116.141 196.906C116.011 196.906 115.875 196.915 115.735 196.934C115.595 196.953 115.455 196.962 115.315 196.962C115.231 196.962 115.189 196.925 115.189 196.85C115.189 196.766 115.231 196.71 115.315 196.682C115.502 196.635 115.684 196.598 115.861 196.57C116.048 196.542 116.23 196.509 116.407 196.472C116.566 196.435 116.753 196.383 116.967 196.318C117.191 196.243 117.378 196.206 117.527 196.206C117.583 196.206 117.616 196.225 117.625 196.262C117.635 196.29 117.639 196.327 117.639 196.374C117.639 197.139 117.639 197.905 117.639 198.67C117.639 199.435 117.63 200.201 117.611 200.966C117.817 200.751 118.064 200.537 118.353 200.322C118.652 200.107 118.969 199.93 119.305 199.79C119.641 199.641 119.959 199.566 120.257 199.566C120.864 199.566 121.34 199.655 121.685 199.832C122.031 200.009 122.273 200.285 122.413 200.658C122.553 201.022 122.623 201.498 122.623 202.086C122.623 202.786 122.619 203.486 122.609 204.186C122.609 204.877 122.609 205.572 122.609 206.272C122.609 206.421 122.647 206.529 122.721 206.594C122.805 206.65 122.922 206.678 123.071 206.678C123.137 206.678 123.197 206.673 123.253 206.664C123.319 206.655 123.384 206.65 123.449 206.65C123.496 206.65 123.538 206.673 123.575 206.72C123.613 206.757 123.631 206.799 123.631 206.846ZM128.206 206.79C128.206 206.837 128.192 206.883 128.164 206.93C128.136 206.967 128.098 206.986 128.052 206.986C127.79 206.986 127.529 206.981 127.268 206.972C127.016 206.953 126.754 206.944 126.484 206.944H126.106C125.826 206.944 125.546 206.953 125.266 206.972C124.995 206.981 124.724 206.986 124.454 206.986C124.416 206.986 124.388 206.963 124.37 206.916C124.36 206.869 124.356 206.832 124.356 206.804C124.356 206.757 124.36 206.725 124.37 206.706C124.379 206.678 124.407 206.659 124.454 206.65C124.5 206.631 124.552 206.627 124.608 206.636C124.673 206.636 124.734 206.636 124.79 206.636C124.855 206.636 124.916 206.641 124.972 206.65C125.028 206.65 125.088 206.65 125.154 206.65C125.284 206.65 125.401 206.622 125.504 206.566C125.616 206.501 125.672 206.393 125.672 206.244V200.644C125.672 200.485 125.644 200.364 125.588 200.28C125.532 200.187 125.415 200.14 125.238 200.14C125.107 200.14 124.972 200.149 124.832 200.168C124.701 200.177 124.57 200.191 124.44 200.21C124.365 200.21 124.328 200.168 124.328 200.084C124.328 199.991 124.365 199.93 124.44 199.902C124.552 199.865 124.668 199.841 124.79 199.832C124.92 199.813 125.042 199.795 125.154 199.776C125.415 199.729 125.676 199.678 125.938 199.622C126.199 199.566 126.456 199.505 126.708 199.44C126.736 199.431 126.773 199.426 126.82 199.426C126.922 199.426 126.974 199.482 126.974 199.594C126.974 200.695 126.969 201.801 126.96 202.912C126.96 204.023 126.96 205.133 126.96 206.244C126.96 206.393 127.025 206.501 127.156 206.566C127.296 206.622 127.426 206.65 127.548 206.65C127.641 206.65 127.734 206.645 127.828 206.636C127.93 206.627 128.028 206.622 128.122 206.622C128.159 206.622 128.182 206.645 128.192 206.692C128.201 206.739 128.206 206.771 128.206 206.79ZM127.072 197.102C127.072 197.335 126.988 197.536 126.82 197.704C126.652 197.863 126.451 197.942 126.218 197.942C125.984 197.942 125.784 197.863 125.616 197.704C125.448 197.536 125.364 197.335 125.364 197.102C125.364 196.869 125.448 196.673 125.616 196.514C125.784 196.346 125.984 196.262 126.218 196.262C126.451 196.262 126.652 196.346 126.82 196.514C126.988 196.673 127.072 196.869 127.072 197.102ZM137.218 206.79C137.218 206.911 137.148 206.972 137.008 206.972C136.803 206.972 136.593 206.967 136.378 206.958C136.163 206.939 135.949 206.93 135.734 206.93C135.417 206.93 135.09 206.939 134.754 206.958C134.427 206.967 134.101 206.972 133.774 206.972C133.737 206.972 133.713 206.944 133.704 206.888C133.695 206.823 133.69 206.771 133.69 206.734C133.69 206.659 133.737 206.622 133.83 206.622C133.923 206.622 133.998 206.622 134.054 206.622C134.101 206.622 134.147 206.627 134.194 206.636C134.25 206.636 134.301 206.636 134.348 206.636C134.619 206.636 134.768 206.501 134.796 206.23C134.824 205.679 134.833 205.124 134.824 204.564C134.824 204.004 134.824 203.449 134.824 202.898C134.824 202.795 134.824 202.693 134.824 202.59C134.824 202.478 134.824 202.371 134.824 202.268C134.815 202.053 134.801 201.792 134.782 201.484C134.763 201.167 134.721 200.91 134.656 200.714C134.507 200.229 134.18 199.986 133.676 199.986C133.219 199.986 132.799 200.103 132.416 200.336C132.033 200.569 131.702 200.863 131.422 201.218C131.413 201.899 131.408 202.576 131.408 203.248C131.408 203.92 131.408 204.592 131.408 205.264V206.23C131.408 206.37 131.469 206.473 131.59 206.538C131.711 206.603 131.833 206.636 131.954 206.636C132.029 206.636 132.099 206.631 132.164 206.622C132.239 206.603 132.309 206.594 132.374 206.594C132.411 206.594 132.435 206.617 132.444 206.664C132.453 206.711 132.458 206.748 132.458 206.776C132.458 206.813 132.444 206.855 132.416 206.902C132.397 206.949 132.36 206.972 132.304 206.972C132.099 206.972 131.893 206.967 131.688 206.958C131.492 206.939 131.291 206.93 131.086 206.93C130.769 206.93 130.451 206.939 130.134 206.958C129.817 206.967 129.495 206.972 129.168 206.972C129.121 206.972 129.093 206.944 129.084 206.888C129.084 206.823 129.084 206.771 129.084 206.734C129.084 206.659 129.126 206.622 129.21 206.622C129.294 206.622 129.359 206.622 129.406 206.622C129.453 206.622 129.499 206.627 129.546 206.636C129.593 206.636 129.639 206.636 129.686 206.636C129.957 206.636 130.106 206.501 130.134 206.23C130.143 206.099 130.148 205.969 130.148 205.838C130.148 205.707 130.148 205.577 130.148 205.446C130.148 204.643 130.148 203.841 130.148 203.038C130.148 202.226 130.143 201.419 130.134 200.616C130.134 200.485 130.106 200.355 130.05 200.224C129.994 200.093 129.887 200.028 129.728 200.028C129.607 200.028 129.49 200.047 129.378 200.084C129.266 200.121 129.149 200.14 129.028 200.14C128.963 200.14 128.93 200.093 128.93 200C128.93 199.981 128.93 199.963 128.93 199.944C128.939 199.916 128.949 199.897 128.958 199.888C128.967 199.879 128.981 199.874 129 199.874C129.019 199.865 129.033 199.855 129.042 199.846C129.21 199.799 129.383 199.767 129.56 199.748C129.747 199.729 129.924 199.701 130.092 199.664C130.251 199.636 130.405 199.599 130.554 199.552C130.703 199.496 130.853 199.468 131.002 199.468C131.067 199.468 131.119 199.501 131.156 199.566C131.203 199.65 131.24 199.771 131.268 199.93C131.296 200.079 131.315 200.233 131.324 200.392C131.343 200.551 131.352 200.681 131.352 200.784C131.557 200.579 131.8 200.378 132.08 200.182C132.369 199.977 132.668 199.809 132.976 199.678C133.293 199.538 133.601 199.468 133.9 199.468C134.759 199.468 135.337 199.659 135.636 200.042C135.944 200.415 136.098 201.008 136.098 201.82C136.098 202.548 136.093 203.276 136.084 204.004C136.084 204.732 136.084 205.46 136.084 206.188C136.084 206.365 136.135 206.487 136.238 206.552C136.35 206.608 136.481 206.636 136.63 206.636C136.705 206.636 136.779 206.631 136.854 206.622C136.929 206.603 136.999 206.594 137.064 206.594C137.12 206.594 137.157 206.617 137.176 206.664C137.204 206.701 137.218 206.743 137.218 206.79ZM142.494 205.362C142.456 204.942 142.433 204.522 142.424 204.102C142.424 203.673 142.419 203.243 142.41 202.814H142.214C141.924 202.814 141.602 202.861 141.248 202.954C140.902 203.038 140.571 203.169 140.254 203.346C139.936 203.523 139.675 203.747 139.47 204.018C139.274 204.279 139.176 204.583 139.176 204.928C139.176 205.376 139.302 205.717 139.554 205.95C139.806 206.174 140.146 206.286 140.576 206.286C140.781 206.286 141.005 206.239 141.248 206.146C141.49 206.043 141.724 205.922 141.948 205.782C142.172 205.642 142.354 205.502 142.494 205.362ZM144.944 206.258C144.944 206.295 144.939 206.323 144.93 206.342C144.836 206.547 144.678 206.706 144.454 206.818C144.239 206.921 144.024 206.972 143.81 206.972C143.418 206.972 143.133 206.86 142.956 206.636C142.788 206.403 142.652 206.118 142.55 205.782C142.195 206.109 141.803 206.384 141.374 206.608C140.944 206.823 140.482 206.93 139.988 206.93C139.642 206.93 139.316 206.865 139.008 206.734C138.709 206.594 138.466 206.393 138.28 206.132C138.093 205.871 138 205.553 138 205.18C138 204.788 138.098 204.452 138.294 204.172C138.499 203.883 138.756 203.64 139.064 203.444C139.381 203.239 139.717 203.075 140.072 202.954C140.436 202.823 140.776 202.725 141.094 202.66C141.308 202.613 141.528 202.571 141.752 202.534C141.976 202.497 142.195 202.459 142.41 202.422C142.41 202.161 142.396 201.857 142.368 201.512C142.349 201.167 142.279 200.882 142.158 200.658C142.036 200.443 141.873 200.252 141.668 200.084C141.462 199.916 141.234 199.832 140.982 199.832C140.552 199.832 140.216 199.944 139.974 200.168C139.731 200.392 139.558 200.709 139.456 201.12C139.446 201.167 139.437 201.218 139.428 201.274C139.428 201.321 139.423 201.367 139.414 201.414C139.404 201.47 139.367 201.521 139.302 201.568C139.246 201.605 139.185 201.624 139.12 201.624C138.942 201.624 138.779 201.582 138.63 201.498C138.49 201.414 138.42 201.274 138.42 201.078C138.42 200.966 138.438 200.868 138.476 200.784C138.597 200.495 138.793 200.257 139.064 200.07C139.334 199.874 139.633 199.725 139.96 199.622C140.296 199.519 140.608 199.468 140.898 199.468C141.402 199.468 141.859 199.561 142.27 199.748C142.68 199.935 143.007 200.21 143.25 200.574C143.502 200.929 143.628 201.377 143.628 201.918C143.628 202.525 143.623 203.136 143.614 203.752C143.614 204.368 143.632 204.984 143.67 205.6C143.679 205.805 143.721 205.987 143.796 206.146C143.87 206.295 144.024 206.37 144.258 206.37C144.379 206.37 144.505 206.342 144.636 206.286C144.776 206.221 144.864 206.188 144.902 206.188C144.93 206.188 144.944 206.211 144.944 206.258ZM159.223 202.688C159.223 202.744 159.209 202.795 159.181 202.842C159.153 202.889 159.106 202.912 159.041 202.912H158.173V205.908C157.52 206.132 156.871 206.379 156.227 206.65C155.919 206.781 155.592 206.865 155.247 206.902C154.911 206.939 154.58 206.958 154.253 206.958C153.973 206.958 153.66 206.925 153.315 206.86C152.97 206.795 152.634 206.701 152.307 206.58C151.99 206.459 151.71 206.319 151.467 206.16C150.758 205.684 150.23 205.068 149.885 204.312C149.549 203.556 149.381 202.753 149.381 201.904C149.381 201.185 149.493 200.509 149.717 199.874C149.95 199.239 150.282 198.679 150.711 198.194C151.14 197.709 151.654 197.331 152.251 197.06C152.858 196.78 153.534 196.64 154.281 196.64C154.832 196.64 155.359 196.715 155.863 196.864C155.947 196.892 156.082 196.934 156.269 196.99C156.456 197.046 156.642 197.102 156.829 197.158C157.016 197.205 157.142 197.228 157.207 197.228C157.403 197.228 157.538 197.205 157.613 197.158C157.688 197.102 157.744 197.041 157.781 196.976C157.828 196.911 157.893 196.859 157.977 196.822H158.089C158.164 196.822 158.206 196.864 158.215 196.948C158.234 197.041 158.238 197.139 158.229 197.242C158.229 197.345 158.229 197.447 158.229 197.55C158.229 197.839 158.234 198.129 158.243 198.418C158.262 198.707 158.271 199.001 158.271 199.3C158.271 199.412 158.266 199.543 158.257 199.692C158.257 199.841 158.173 199.916 158.005 199.916C157.949 199.916 157.898 199.911 157.851 199.902C157.814 199.883 157.776 199.851 157.739 199.804C157.73 199.785 157.706 199.734 157.669 199.65C157.632 199.557 157.594 199.463 157.557 199.37C157.52 199.267 157.492 199.197 157.473 199.16C157.221 198.591 156.852 198.115 156.367 197.732C156.115 197.527 155.793 197.363 155.401 197.242C155.018 197.121 154.664 197.06 154.337 197.06C153.712 197.06 153.18 197.214 152.741 197.522C152.302 197.821 151.948 198.213 151.677 198.698C151.406 199.183 151.21 199.706 151.089 200.266C150.968 200.826 150.907 201.367 150.907 201.89C150.907 202.441 150.972 202.982 151.103 203.514C151.234 204.046 151.434 204.527 151.705 204.956C151.985 205.385 152.349 205.731 152.797 205.992C153.245 206.244 153.782 206.37 154.407 206.37C154.594 206.37 154.818 206.351 155.079 206.314C155.34 206.277 155.602 206.211 155.863 206.118C156.124 206.025 156.339 205.899 156.507 205.74C156.684 205.581 156.773 205.381 156.773 205.138V203.29C156.773 203.141 156.698 203.047 156.549 203.01C156.409 202.963 156.288 202.94 156.185 202.94C156.045 202.94 155.905 202.949 155.765 202.968C155.625 202.977 155.485 202.982 155.345 202.982C155.27 202.982 155.219 202.959 155.191 202.912C155.172 202.865 155.163 202.809 155.163 202.744C155.163 202.688 155.172 202.637 155.191 202.59C155.21 202.534 155.256 202.506 155.331 202.506C155.48 202.506 155.625 202.511 155.765 202.52C155.905 202.52 156.05 202.52 156.199 202.52H157.193C157.352 202.52 157.51 202.52 157.669 202.52C157.828 202.52 157.986 202.515 158.145 202.506C158.304 202.506 158.458 202.501 158.607 202.492C158.756 202.473 158.906 202.464 159.055 202.464C159.111 202.464 159.153 202.492 159.181 202.548C159.209 202.595 159.223 202.641 159.223 202.688ZM166.073 203.304C166.073 202.903 166.04 202.501 165.975 202.1C165.919 201.689 165.807 201.311 165.639 200.966C165.48 200.621 165.247 200.345 164.939 200.14C164.631 199.925 164.229 199.818 163.735 199.818C163.268 199.818 162.885 199.93 162.587 200.154C162.297 200.378 162.069 200.667 161.901 201.022C161.742 201.377 161.63 201.759 161.565 202.17C161.509 202.581 161.481 202.968 161.481 203.332C161.481 203.733 161.509 204.135 161.565 204.536C161.63 204.937 161.747 205.301 161.915 205.628C162.083 205.945 162.321 206.202 162.629 206.398C162.946 206.594 163.352 206.692 163.847 206.692C164.332 206.692 164.719 206.589 165.009 206.384C165.307 206.179 165.531 205.908 165.681 205.572C165.839 205.236 165.942 204.872 165.989 204.48C166.045 204.079 166.073 203.687 166.073 203.304ZM167.515 203.346C167.515 204.046 167.347 204.676 167.011 205.236C166.684 205.796 166.236 206.239 165.667 206.566C165.107 206.893 164.477 207.056 163.777 207.056C163.095 207.056 162.479 206.893 161.929 206.566C161.378 206.23 160.939 205.787 160.613 205.236C160.286 204.676 160.123 204.055 160.123 203.374C160.123 202.674 160.281 202.03 160.599 201.442C160.916 200.845 161.35 200.364 161.901 200C162.461 199.636 163.105 199.454 163.833 199.454C164.617 199.454 165.284 199.622 165.835 199.958C166.385 200.285 166.801 200.742 167.081 201.33C167.37 201.909 167.515 202.581 167.515 203.346ZM173.256 206.356C173.256 206.44 173.191 206.524 173.06 206.608C172.939 206.692 172.789 206.767 172.612 206.832C172.435 206.897 172.262 206.949 172.094 206.986C171.935 207.023 171.819 207.042 171.744 207.042C171.259 207.042 170.881 206.981 170.61 206.86C170.349 206.739 170.162 206.538 170.05 206.258C169.947 205.978 169.896 205.6 169.896 205.124C169.896 204.349 169.896 203.575 169.896 202.8C169.905 202.016 169.915 201.237 169.924 200.462H168.916C168.851 200.462 168.795 200.481 168.748 200.518C168.711 200.546 168.669 200.56 168.622 200.56C168.575 200.56 168.552 200.527 168.552 200.462C168.552 200.425 168.575 200.35 168.622 200.238C168.678 200.126 168.715 200.051 168.734 200.014C168.762 200.023 168.804 200.028 168.86 200.028H169.952L169.966 198.25C170.181 198.11 170.377 197.956 170.554 197.788C170.731 197.611 170.909 197.433 171.086 197.256C171.105 197.237 171.123 197.223 171.142 197.214C171.161 197.195 171.179 197.186 171.198 197.186C171.282 197.186 171.324 197.219 171.324 197.284L171.24 200.014C171.539 200.014 171.833 200.009 172.122 200C172.421 199.991 172.715 199.986 173.004 199.986C173.125 199.986 173.186 200.056 173.186 200.196C173.186 200.373 173.107 200.462 172.948 200.462H171.24C171.24 201.171 171.235 201.885 171.226 202.604C171.226 203.313 171.226 204.027 171.226 204.746V205.824C171.226 206.057 171.324 206.221 171.52 206.314C171.716 206.398 171.907 206.44 172.094 206.44C172.355 206.44 172.612 206.398 172.864 206.314C172.892 206.295 172.934 206.277 172.99 206.258C173.046 206.239 173.088 206.23 173.116 206.23C173.209 206.23 173.256 206.272 173.256 206.356ZM179.963 203.304C179.963 202.903 179.93 202.501 179.865 202.1C179.809 201.689 179.697 201.311 179.529 200.966C179.37 200.621 179.137 200.345 178.829 200.14C178.521 199.925 178.12 199.818 177.625 199.818C177.158 199.818 176.776 199.93 176.477 200.154C176.188 200.378 175.959 200.667 175.791 201.022C175.632 201.377 175.52 201.759 175.455 202.17C175.399 202.581 175.371 202.968 175.371 203.332C175.371 203.733 175.399 204.135 175.455 204.536C175.52 204.937 175.637 205.301 175.805 205.628C175.973 205.945 176.211 206.202 176.519 206.398C176.836 206.594 177.242 206.692 177.737 206.692C178.222 206.692 178.61 206.589 178.899 206.384C179.198 206.179 179.422 205.908 179.571 205.572C179.73 205.236 179.832 204.872 179.879 204.48C179.935 204.079 179.963 203.687 179.963 203.304ZM181.405 203.346C181.405 204.046 181.237 204.676 180.901 205.236C180.574 205.796 180.126 206.239 179.557 206.566C178.997 206.893 178.367 207.056 177.667 207.056C176.986 207.056 176.37 206.893 175.819 206.566C175.268 206.23 174.83 205.787 174.503 205.236C174.176 204.676 174.013 204.055 174.013 203.374C174.013 202.674 174.172 202.03 174.489 201.442C174.806 200.845 175.24 200.364 175.791 200C176.351 199.636 176.995 199.454 177.723 199.454C178.507 199.454 179.174 199.622 179.725 199.958C180.276 200.285 180.691 200.742 180.971 201.33C181.26 201.909 181.405 202.581 181.405 203.346ZM193.965 198.74C193.965 198.824 193.932 198.894 193.867 198.95C193.811 198.997 193.745 199.02 193.671 199.02C193.577 199.02 193.517 199.001 193.489 198.964C193.461 198.917 193.433 198.857 193.405 198.782C193.246 198.278 193.003 197.905 192.677 197.662C192.35 197.419 191.916 197.298 191.375 197.298H188.827V201.512C189.256 201.503 189.685 201.498 190.115 201.498C190.544 201.489 190.973 201.465 191.403 201.428C191.683 201.409 191.958 201.377 192.229 201.33C192.499 201.283 192.77 201.237 193.041 201.19H193.069C193.087 201.19 193.106 201.199 193.125 201.218C193.153 201.227 193.167 201.241 193.167 201.26C193.167 201.325 193.134 201.442 193.069 201.61C193.003 201.769 192.957 201.881 192.929 201.946C192.882 202.058 192.812 202.114 192.719 202.114C192.653 202.114 192.583 202.114 192.509 202.114C192.443 202.105 192.373 202.095 192.299 202.086C191.972 202.049 191.641 202.03 191.305 202.03C190.978 202.021 190.651 202.016 190.325 202.016C190.203 202.016 190.059 202.016 189.891 202.016C189.723 202.016 189.555 202.03 189.387 202.058C189.228 202.086 189.093 202.147 188.981 202.24C188.878 202.324 188.827 202.455 188.827 202.632V205.796C188.827 205.899 188.85 205.997 188.897 206.09C188.953 206.174 189.018 206.253 189.093 206.328C189.233 206.449 189.405 206.524 189.611 206.552C189.825 206.571 190.021 206.58 190.199 206.58C190.329 206.58 190.395 206.65 190.395 206.79C190.395 206.939 190.311 207.014 190.143 207.014C189.993 207.014 189.839 207.009 189.681 207C189.522 206.981 189.363 206.972 189.205 206.972C189.018 206.972 188.827 206.972 188.631 206.972C188.444 206.963 188.257 206.958 188.071 206.958C187.753 206.958 187.436 206.972 187.119 207C186.811 207.019 186.493 207.028 186.167 207.028C186.129 207.028 186.087 207.014 186.041 206.986C186.003 206.949 185.985 206.907 185.985 206.86C185.985 206.795 185.989 206.743 185.999 206.706C186.017 206.659 186.064 206.631 186.139 206.622C186.213 206.603 186.293 206.594 186.377 206.594C186.461 206.585 186.54 206.575 186.615 206.566C186.96 206.491 187.175 206.356 187.259 206.16C187.352 205.955 187.399 205.693 187.399 205.376V197.886C187.399 197.671 187.324 197.531 187.175 197.466C187.025 197.401 186.848 197.368 186.643 197.368C186.447 197.368 186.279 197.368 186.139 197.368C185.961 197.368 185.873 197.289 185.873 197.13C185.873 197.055 185.882 196.99 185.901 196.934C185.929 196.878 185.985 196.85 186.069 196.85C186.237 196.85 186.405 196.855 186.573 196.864C186.75 196.873 186.923 196.878 187.091 196.878H189.555C190.021 196.878 190.488 196.873 190.955 196.864C191.431 196.845 191.902 196.836 192.369 196.836C192.798 196.836 193.227 196.822 193.657 196.794C193.703 197.074 193.764 197.401 193.839 197.774C193.923 198.147 193.965 198.469 193.965 198.74ZM199.164 205.362C199.126 204.942 199.103 204.522 199.094 204.102C199.094 203.673 199.089 203.243 199.08 202.814H198.884C198.594 202.814 198.272 202.861 197.918 202.954C197.572 203.038 197.241 203.169 196.924 203.346C196.606 203.523 196.345 203.747 196.14 204.018C195.944 204.279 195.846 204.583 195.846 204.928C195.846 205.376 195.972 205.717 196.224 205.95C196.476 206.174 196.816 206.286 197.246 206.286C197.451 206.286 197.675 206.239 197.918 206.146C198.16 206.043 198.394 205.922 198.618 205.782C198.842 205.642 199.024 205.502 199.164 205.362ZM201.614 206.258C201.614 206.295 201.609 206.323 201.6 206.342C201.506 206.547 201.348 206.706 201.124 206.818C200.909 206.921 200.694 206.972 200.48 206.972C200.088 206.972 199.803 206.86 199.626 206.636C199.458 206.403 199.322 206.118 199.22 205.782C198.865 206.109 198.473 206.384 198.044 206.608C197.614 206.823 197.152 206.93 196.658 206.93C196.312 206.93 195.986 206.865 195.678 206.734C195.379 206.594 195.136 206.393 194.95 206.132C194.763 205.871 194.67 205.553 194.67 205.18C194.67 204.788 194.768 204.452 194.964 204.172C195.169 203.883 195.426 203.64 195.734 203.444C196.051 203.239 196.387 203.075 196.742 202.954C197.106 202.823 197.446 202.725 197.764 202.66C197.978 202.613 198.198 202.571 198.422 202.534C198.646 202.497 198.865 202.459 199.08 202.422C199.08 202.161 199.066 201.857 199.038 201.512C199.019 201.167 198.949 200.882 198.828 200.658C198.706 200.443 198.543 200.252 198.338 200.084C198.132 199.916 197.904 199.832 197.652 199.832C197.222 199.832 196.886 199.944 196.644 200.168C196.401 200.392 196.228 200.709 196.126 201.12C196.116 201.167 196.107 201.218 196.098 201.274C196.098 201.321 196.093 201.367 196.084 201.414C196.074 201.47 196.037 201.521 195.972 201.568C195.916 201.605 195.855 201.624 195.79 201.624C195.612 201.624 195.449 201.582 195.3 201.498C195.16 201.414 195.09 201.274 195.09 201.078C195.09 200.966 195.108 200.868 195.146 200.784C195.267 200.495 195.463 200.257 195.734 200.07C196.004 199.874 196.303 199.725 196.63 199.622C196.966 199.519 197.278 199.468 197.568 199.468C198.072 199.468 198.529 199.561 198.94 199.748C199.35 199.935 199.677 200.21 199.92 200.574C200.172 200.929 200.298 201.377 200.298 201.918C200.298 202.525 200.293 203.136 200.284 203.752C200.284 204.368 200.302 204.984 200.34 205.6C200.349 205.805 200.391 205.987 200.466 206.146C200.54 206.295 200.694 206.37 200.928 206.37C201.049 206.37 201.175 206.342 201.306 206.286C201.446 206.221 201.534 206.188 201.572 206.188C201.6 206.188 201.614 206.211 201.614 206.258ZM207.801 200.77C207.801 200.863 207.764 200.952 207.689 201.036C207.624 201.111 207.54 201.148 207.437 201.148C207.297 201.148 207.194 201.101 207.129 201.008C207.073 200.915 207.022 200.807 206.975 200.686C206.938 200.565 206.877 200.457 206.793 200.364C206.709 200.271 206.569 200.224 206.373 200.224C206.336 200.224 206.298 200.224 206.261 200.224C206.233 200.224 206.2 200.229 206.163 200.238C206.004 200.266 205.832 200.364 205.645 200.532C205.458 200.7 205.276 200.901 205.099 201.134C204.931 201.358 204.791 201.582 204.679 201.806C204.567 202.03 204.506 202.217 204.497 202.366C204.488 202.515 204.483 202.665 204.483 202.814C204.483 202.954 204.483 203.094 204.483 203.234C204.483 203.738 204.483 204.242 204.483 204.746C204.492 205.25 204.497 205.749 204.497 206.244C204.497 206.384 204.553 206.487 204.665 206.552C204.786 206.608 204.908 206.636 205.029 206.636C205.122 206.636 205.216 206.631 205.309 206.622C205.402 206.613 205.496 206.608 205.589 206.608C205.636 206.608 205.668 206.631 205.687 206.678C205.706 206.715 205.715 206.753 205.715 206.79C205.715 206.939 205.64 207.014 205.491 207.014C205.211 207.014 204.931 207.009 204.651 207C204.371 206.981 204.091 206.972 203.811 206.972C203.522 206.972 203.228 206.981 202.929 207C202.64 207.019 202.346 207.028 202.047 207.028C202.01 207.028 201.982 207 201.963 206.944C201.954 206.888 201.949 206.841 201.949 206.804C201.949 206.711 201.986 206.659 202.061 206.65C202.164 206.631 202.271 206.627 202.383 206.636C202.495 206.645 202.598 206.65 202.691 206.65C202.831 206.65 202.943 206.622 203.027 206.566C203.12 206.501 203.172 206.393 203.181 206.244C203.2 205.945 203.209 205.642 203.209 205.334C203.218 205.026 203.223 204.718 203.223 204.41V203.052C203.214 202.651 203.209 202.254 203.209 201.862C203.218 201.461 203.204 201.064 203.167 200.672C203.158 200.485 203.106 200.355 203.013 200.28C202.92 200.196 202.78 200.154 202.593 200.154C202.518 200.154 202.439 200.163 202.355 200.182C202.28 200.191 202.201 200.196 202.117 200.196C202.042 200.196 202.005 200.14 202.005 200.028C202.005 199.963 202.038 199.916 202.103 199.888C202.196 199.86 202.294 199.841 202.397 199.832C202.5 199.813 202.598 199.799 202.691 199.79C202.943 199.743 203.195 199.697 203.447 199.65C203.699 199.603 203.951 199.547 204.203 199.482C204.287 199.51 204.348 199.561 204.385 199.636C204.404 199.673 204.418 199.776 204.427 199.944C204.436 200.112 204.441 200.308 204.441 200.532C204.441 200.747 204.441 200.952 204.441 201.148C204.441 201.335 204.441 201.465 204.441 201.54C204.646 201.213 204.88 200.887 205.141 200.56C205.402 200.233 205.701 199.963 206.037 199.748C206.373 199.533 206.751 199.426 207.171 199.426C207.395 199.426 207.54 199.496 207.605 199.636C207.67 199.776 207.712 199.939 207.731 200.126C207.75 200.229 207.764 200.336 207.773 200.448C207.792 200.56 207.801 200.667 207.801 200.77ZM220.686 206.818C220.686 206.949 220.634 207.014 220.532 207.014C220.27 207.014 220.004 207.005 219.734 206.986C219.463 206.967 219.192 206.958 218.922 206.958C218.651 206.958 218.376 206.967 218.096 206.986C217.825 207.005 217.554 207.014 217.284 207.014C217.246 207.014 217.218 206.991 217.2 206.944C217.19 206.897 217.186 206.86 217.186 206.832C217.186 206.748 217.228 206.697 217.312 206.678C217.405 206.659 217.503 206.655 217.606 206.664C217.718 206.673 217.802 206.678 217.858 206.678C217.988 206.678 218.096 206.645 218.18 206.58C218.264 206.515 218.306 206.417 218.306 206.286C218.306 205.661 218.31 205.04 218.32 204.424C218.338 203.808 218.348 203.192 218.348 202.576C218.348 202.473 218.348 202.371 218.348 202.268C218.348 202.165 218.343 202.063 218.334 201.96C218.324 201.736 218.31 201.507 218.292 201.274C218.282 201.031 218.245 200.807 218.18 200.602C218.114 200.387 218.002 200.215 217.844 200.084C217.685 199.953 217.456 199.888 217.158 199.888C216.943 199.888 216.705 199.953 216.444 200.084C216.192 200.205 215.949 200.35 215.716 200.518C215.482 200.686 215.286 200.845 215.128 200.994C215.146 201.125 215.156 201.26 215.156 201.4C215.156 201.531 215.156 201.661 215.156 201.792C215.156 202.063 215.156 202.338 215.156 202.618C215.165 202.889 215.17 203.159 215.17 203.43C215.17 203.906 215.165 204.382 215.156 204.858C215.156 205.334 215.156 205.81 215.156 206.286C215.156 206.426 215.216 206.524 215.338 206.58C215.459 206.636 215.58 206.664 215.702 206.664C215.776 206.664 215.851 206.659 215.926 206.65C216.01 206.641 216.084 206.636 216.15 206.636C216.196 206.636 216.224 206.659 216.234 206.706C216.252 206.753 216.262 206.79 216.262 206.818C216.262 206.865 216.248 206.911 216.22 206.958C216.192 206.995 216.15 207.014 216.094 207.014C215.832 207.014 215.566 207.005 215.296 206.986C215.034 206.967 214.768 206.958 214.498 206.958C214.236 206.958 213.97 206.967 213.7 206.986C213.429 207.005 213.158 207.014 212.888 207.014C212.85 207.014 212.822 206.991 212.804 206.944C212.785 206.897 212.776 206.86 212.776 206.832C212.776 206.757 212.813 206.706 212.888 206.678C212.962 206.659 213.051 206.655 213.154 206.664C213.266 206.673 213.359 206.678 213.434 206.678C213.564 206.678 213.672 206.65 213.756 206.594C213.849 206.529 213.896 206.426 213.896 206.286V202.716C213.896 202.52 213.891 202.277 213.882 201.988C213.882 201.699 213.863 201.414 213.826 201.134C213.798 200.845 213.746 200.616 213.672 200.448C213.606 200.28 213.494 200.149 213.336 200.056C213.186 199.963 213.018 199.916 212.832 199.916C212.589 199.916 212.342 199.977 212.09 200.098C211.838 200.219 211.6 200.369 211.376 200.546C211.152 200.723 210.96 200.901 210.802 201.078V206.272C210.802 206.412 210.853 206.515 210.956 206.58C211.058 206.636 211.17 206.664 211.292 206.664C211.366 206.664 211.441 206.659 211.516 206.65C211.59 206.631 211.66 206.622 211.726 206.622C211.763 206.622 211.786 206.65 211.796 206.706C211.805 206.753 211.81 206.785 211.81 206.804C211.81 206.851 211.796 206.897 211.768 206.944C211.749 206.981 211.712 207 211.656 207C211.478 207 211.301 206.995 211.124 206.986C210.946 206.967 210.769 206.958 210.592 206.958C210.237 206.958 209.882 206.967 209.528 206.986C209.173 206.995 208.818 207 208.464 207C208.426 207 208.398 206.977 208.38 206.93C208.361 206.883 208.352 206.846 208.352 206.818C208.352 206.706 208.398 206.65 208.492 206.65C208.594 206.65 208.692 206.655 208.786 206.664C208.879 206.664 208.972 206.664 209.066 206.664C209.196 206.664 209.308 206.636 209.402 206.58C209.495 206.515 209.542 206.412 209.542 206.272C209.542 205.329 209.537 204.387 209.528 203.444C209.528 202.492 209.528 201.545 209.528 200.602C209.528 200.499 209.518 200.397 209.5 200.294C209.481 200.191 209.42 200.121 209.318 200.084C209.252 200.056 209.182 200.042 209.108 200.042C208.986 200.042 208.865 200.061 208.744 200.098C208.622 200.126 208.496 200.14 208.366 200.14C208.282 200.14 208.24 200.084 208.24 199.972C208.24 199.897 208.268 199.851 208.324 199.832C208.37 199.813 208.422 199.804 208.478 199.804C208.543 199.795 208.604 199.785 208.66 199.776C208.874 199.748 209.089 199.715 209.304 199.678C209.528 199.631 209.742 199.585 209.948 199.538C210.022 199.519 210.102 199.501 210.186 199.482C210.27 199.463 210.354 199.454 210.438 199.454C210.55 199.454 210.624 199.538 210.662 199.706C210.708 199.865 210.732 200.037 210.732 200.224C210.741 200.411 210.746 200.546 210.746 200.63C210.942 200.462 211.161 200.289 211.404 200.112C211.646 199.925 211.903 199.767 212.174 199.636C212.444 199.505 212.715 199.44 212.986 199.44C213.462 199.44 213.863 199.519 214.19 199.678C214.516 199.837 214.796 200.135 215.03 200.574C215.235 200.397 215.468 200.219 215.73 200.042C215.991 199.855 216.262 199.701 216.542 199.58C216.831 199.449 217.116 199.384 217.396 199.384C218.012 199.384 218.478 199.473 218.796 199.65C219.122 199.827 219.342 200.103 219.454 200.476C219.575 200.84 219.636 201.311 219.636 201.89C219.636 202.618 219.631 203.351 219.622 204.088C219.612 204.816 219.608 205.549 219.608 206.286C219.608 206.426 219.668 206.524 219.79 206.58C219.92 206.636 220.046 206.664 220.168 206.664C220.242 206.664 220.312 206.659 220.378 206.65C220.452 206.641 220.522 206.636 220.588 206.636C220.625 206.636 220.648 206.659 220.658 206.706C220.676 206.753 220.686 206.79 220.686 206.818Z" fill="#4E301B"/>
</svg>
