<svg width="300" height="155" viewBox="0 0 300 155" fill="none" xmlns="http://www.w3.org/2000/svg">
<g clip-path="url(#clip0_26952_3)">
<path d="M175.579 11.9355L171.014 9.98369C168.432 8.87993 165.518 9.1126 163.071 10.1712L165.031 5.02079C165.458 3.87922 165.361 2.67073 164.753 1.7845C164.235 1.04157 163.401 0.598236 162.508 0.598236C161.869 0.598236 161.246 0.823607 160.706 1.24395L153.273 6.99532C153.25 7.01788 153.22 7.03313 153.198 7.06267H144.623C144.601 7.03313 144.571 7.01788 144.548 6.99532L137.123 1.24395C136.575 0.8235 135.951 0.598236 135.313 0.598236C134.42 0.598236 133.586 1.04157 133.068 1.7845C132.46 2.67073 132.362 3.87922 132.798 5.02079L134.563 9.67571C132.438 9.06748 130.11 9.08252 127.993 9.98358L123.428 11.9354C121.956 12.5659 121.558 14.1278 122.535 15.4265L125.575 19.481C127.445 21.9738 130.388 23.2878 133.241 23.4754L134.435 36.6221C133.827 37.3507 133.391 38.2065 133.181 39.1376L132.685 41.3447L132.52 42.0582C132.16 43.635 132.445 45.2567 133.331 46.6307C133.774 47.3289 134.36 47.9372 135.043 48.4253C135.02 48.853 135.095 49.2812 135.268 49.6789L136.372 52.2091C137.078 53.8305 139.052 54.4016 140.674 54.4016H157.154C158.769 54.4016 160.751 53.8305 161.456 52.2091L162.56 49.6789C162.733 49.2812 162.808 48.853 162.785 48.4322C163.453 47.9445 164.039 47.3362 164.49 46.6306C165.376 45.2566 165.661 43.6349 165.308 42.0656L165.143 41.3373L164.632 39.1376C164.422 38.2066 163.994 37.3655 163.393 36.6373L164.587 23.4906C167.778 23.633 171.292 22.3195 173.424 19.481L176.465 15.4265C177.441 14.1279 177.044 12.566 175.579 11.9355ZM159.392 51.3082C159.174 51.7964 158.243 52.1493 157.154 52.1493H140.674C139.585 52.1493 138.654 51.7964 138.437 51.3082L137.686 49.5966C138.211 49.7169 138.759 49.7768 139.315 49.7768H158.513C159.069 49.7768 159.617 49.7169 160.135 49.604L159.392 51.3082ZM139.563 47.524H139.315C138.504 47.524 137.753 47.3442 137.093 47.0289C136.717 46.8557 136.379 46.6385 136.079 46.3828C135.741 46.0975 135.448 45.7749 135.223 45.4145L135.013 43.0793L134.893 41.7731L135.381 39.6407C135.816 37.704 137.746 36.3149 139.976 36.3149H142.461H155.367H157.845C160.083 36.3149 161.997 37.704 162.44 39.6407L162.928 41.7731L162.816 43.0646L162.606 45.3997C162.598 45.4071 162.598 45.4145 162.59 45.4218C162.365 45.7748 162.08 46.0975 161.742 46.3754C161.442 46.6386 161.104 46.8557 160.728 47.0289C160.075 47.3442 159.324 47.524 158.513 47.524H158.258H139.563ZM147.116 25.1351V8.7145H150.705V25.1352C150.705 28.3412 151.666 31.4642 153.461 34.0626H144.368C146.155 31.4641 147.116 28.3411 147.116 25.1351ZM162.508 2.85055C162.951 2.85055 163.206 3.47413 162.921 4.22491L161.059 9.1126C159.7 8.21896 158.168 7.61106 156.561 7.30319L162.08 3.02339C162.237 2.90351 162.38 2.85055 162.508 2.85055ZM159.017 21.178C159.017 21.178 159.024 21.178 159.024 21.1859C159.437 21.3661 159.782 21.6661 160.015 22.0491C160.218 22.3795 160.338 22.7699 160.338 23.1828V24.2489C160.338 25.4504 159.362 26.4261 158.161 26.4261H157.29C156.081 26.4261 155.105 25.4504 155.105 24.2489V23.1828C155.105 21.9813 156.081 21.0056 157.29 21.0056H158.161C158.461 21.0057 158.753 21.0655 159.017 21.178ZM142.716 24.249C142.716 25.4505 141.74 26.4262 140.539 26.4262H139.668C138.467 26.4262 137.491 25.4505 137.491 24.249V23.1829C137.491 23.0705 137.498 22.9576 137.521 22.8451C137.678 21.8016 138.579 21.0057 139.668 21.0057H140.133H140.539C141.74 21.0057 142.716 21.9814 142.716 23.1829V24.249ZM136.762 9.1126L134.9 4.22491C134.615 3.47413 134.87 2.85055 135.313 2.85055C135.441 2.85055 135.591 2.90351 135.741 3.02339L141.267 7.30319C139.653 7.61106 138.121 8.21896 136.762 9.1126ZM165.263 15.9977C165.278 15.8174 165.286 15.6373 165.286 15.457C165.286 14.7288 165.151 14.0002 164.88 13.3246C165.774 12.9716 167.095 12.7092 168.514 13.3098L170.309 14.0753C171.232 14.473 171.488 15.4643 170.872 16.2902L169.678 17.8747C168.785 19.0684 167.591 19.5261 166.75 19.6989C166.134 19.8262 165.504 19.8491 164.925 19.7589L165.263 15.9977ZM132.558 15.9977L132.903 19.7889C132.685 19.7741 132.468 19.7443 132.25 19.699C131.409 19.5262 130.223 19.0685 129.329 17.8748L128.136 16.2903C127.512 15.4645 127.767 14.4731 128.698 14.0754L130.486 13.3099C131.417 12.9117 132.31 12.8891 133.068 13.0246C132.715 13.7905 132.535 14.6164 132.535 15.4572C132.535 15.6373 132.543 15.8176 132.558 15.9977Z" fill="#4E301B"/>
<path d="M140.321 22.3571H139.886C139.285 22.3571 138.797 22.8451 138.797 23.453V23.9788C138.797 24.5867 139.285 25.0674 139.886 25.0674H140.321C140.922 25.0674 141.41 24.5868 141.41 23.9788V23.453C141.41 22.8451 140.922 22.3571 140.321 22.3571ZM139.571 23.483C139.571 23.1828 139.818 22.9428 140.119 22.9428H140.336C140.471 22.9428 140.591 22.9879 140.681 23.0704L139.683 24.0687C139.608 23.9862 139.571 23.8733 139.571 23.7535V23.483H139.571Z" fill="#4E301B"/>
<path d="M156.419 23.453V23.9788C156.419 24.5867 156.899 25.0674 157.507 25.0674H157.943C158.543 25.0674 159.031 24.5868 159.031 23.9788V23.453C159.031 22.8451 158.543 22.3571 157.943 22.3571H157.507C156.899 22.3571 156.419 22.8451 156.419 23.453ZM157.041 23.483C157.041 23.1828 157.289 22.9428 157.589 22.9428H157.807C157.942 22.9428 158.062 22.9879 158.153 23.0704L157.154 24.0687C157.079 23.9862 157.041 23.8733 157.041 23.7535V23.483H157.041Z" fill="#4E301B"/>
<path d="M145.427 41.3227L143.204 40.4816L143.137 38.627C143.129 38.4016 142.964 38.214 142.739 38.1689L142.679 38.1615L142.386 38.1766C142.138 38.1841 141.928 38.3716 141.898 38.6195L141.485 42.5685C141.455 42.8164 141.613 43.0418 141.853 43.1017L145.216 43.9428C145.367 43.9728 145.524 43.9276 145.637 43.83C145.757 43.725 145.817 43.5824 145.81 43.4248L145.667 41.7132C145.659 41.5478 145.569 41.4048 145.427 41.3227Z" fill="#4E301B"/>
<path d="M155.435 38.1768L155.15 38.1616L155.082 38.169C154.857 38.2142 154.692 38.4017 154.684 38.6271L154.624 40.4817L152.394 41.3228C152.252 41.4049 152.169 41.5478 152.154 41.7132L152.019 43.4249C152.004 43.5825 152.064 43.725 152.184 43.8301C152.297 43.9277 152.454 43.9729 152.604 43.9429L155.968 43.1017C156.209 43.0418 156.366 42.8164 156.344 42.5685L155.923 38.6196C155.893 38.3717 155.683 38.1842 155.435 38.1768Z" fill="#4E301B"/>
</g>
<path d="M36.56 105.48C34.9333 106.573 33.0933 107.573 31.04 108.48C28.9867 109.36 27.0133 110.067 25.12 110.6C24.2933 110.84 23.4267 111.027 22.52 111.16C21.6133 111.32 20.7333 111.467 19.88 111.6C19.56 111.653 19.24 111.707 18.92 111.76C18.6267 111.813 18.32 111.84 18 111.84C17.8933 111.84 17.7467 111.827 17.56 111.8C17.3733 111.773 17.28 111.68 17.28 111.52C17.28 111.333 17.4 111.187 17.64 111.08C17.9067 110.973 18.1733 110.893 18.44 110.84C18.7067 110.76 18.9733 110.667 19.24 110.56C19.5867 110.427 19.92 110.293 20.24 110.16C20.56 110.027 20.8933 109.893 21.24 109.76C23.4 108.88 25.48 107.92 27.48 106.88C29.48 105.813 31.3333 104.467 33.04 102.84C33.6533 103.267 34.24 103.707 34.8 104.16C35.3867 104.587 35.9733 105.027 36.56 105.48ZM41.56 108.68C41.56 108.787 41.4933 108.893 41.36 109C41.2267 109.08 41.12 109.147 41.04 109.2C37.7333 110.933 34.36 112.32 30.92 113.36C27.48 114.427 23.88 114.96 20.12 114.96C20.0133 114.96 19.84 114.96 19.6 114.96C19.36 114.96 19.1333 114.92 18.92 114.84C18.7067 114.787 18.6 114.68 18.6 114.52C18.6 114.413 18.6533 114.32 18.76 114.24C18.8667 114.16 18.96 114.107 19.04 114.08C19.2533 114 19.4667 113.933 19.68 113.88C19.8933 113.853 20.0933 113.813 20.28 113.76C20.6533 113.653 21.04 113.547 21.44 113.44C21.84 113.333 22.2267 113.227 22.6 113.12C24.2267 112.613 25.96 112 27.8 111.28C29.64 110.56 31.4267 109.747 33.16 108.84C34.92 107.933 36.44 106.933 37.72 105.84C37.8267 105.92 38.08 106.093 38.48 106.36C38.88 106.627 39.32 106.933 39.8 107.28C40.28 107.6 40.6933 107.893 41.04 108.16C41.3867 108.427 41.56 108.6 41.56 108.68ZM32.52 102.04C31.64 102.653 30.5867 103.347 29.36 104.12C28.16 104.893 26.88 105.64 25.52 106.36C24.16 107.053 22.8133 107.64 21.48 108.12C20.1733 108.573 18.9867 108.8 17.92 108.8C17.6533 108.8 17.52 108.693 17.52 108.48C17.52 108.373 17.5733 108.293 17.68 108.24C18.24 107.973 18.7867 107.707 19.32 107.44C19.8533 107.173 20.3733 106.88 20.88 106.56C22.4267 105.573 23.88 104.507 25.24 103.36C26.6267 102.213 27.9467 100.987 29.2 99.68L32.52 102.04ZM49.64 105.6C49.64 106.187 49.4 106.613 48.92 106.88C48.44 107.147 47.9467 107.28 47.44 107.28C45.9467 107.28 44.4133 107.027 42.84 106.52C41.2667 105.987 39.72 105.28 38.2 104.4C36.7067 103.52 35.32 102.547 34.04 101.48C32.76 100.387 31.6533 99.2933 30.72 98.2C30.2933 98.3067 29.8133 98.4533 29.28 98.64C28.7467 98.8267 28.2933 99.04 27.92 99.28C27.5733 99.4933 27.24 99.7467 26.92 100.04C26.6267 100.307 26.32 100.573 26 100.84C23.8667 102.493 21.7333 103.893 19.6 105.04C17.4667 106.16 15.08 107.053 12.44 107.72C12.2533 107.773 12.0533 107.813 11.84 107.84C11.6267 107.867 11.4133 107.88 11.2 107.88C11.0933 107.88 10.9867 107.853 10.88 107.8C10.8 107.72 10.76 107.627 10.76 107.52C10.76 107.36 10.7867 107.253 10.84 107.2C10.92 107.147 11.0133 107.093 11.12 107.04C12.88 105.973 14.5467 104.907 16.12 103.84C17.6933 102.773 19.1733 101.6 20.56 100.32C21.9733 99.04 23.3067 97.56 24.56 95.88V94.56C23.4933 95.1733 22.4 95.76 21.28 96.32C20.16 96.8533 19.0133 97.2667 17.84 97.56C17.3333 97.6667 16.8133 97.7867 16.28 97.92C15.7467 98.0267 15.2133 98.08 14.68 98.08C14.6 98.08 14.4933 98.0533 14.36 98C14.2533 97.9467 14.2 97.8667 14.2 97.76C14.2 97.6 14.2667 97.48 14.4 97.4C14.5333 97.2933 14.6533 97.2133 14.76 97.16C15.2133 96.92 15.6667 96.68 16.12 96.44C16.6 96.2 17.0533 95.9333 17.48 95.64C18.5733 94.8933 19.6133 94.0667 20.6 93.16C21.5867 92.2533 22.4933 91.2933 23.32 90.28L24.56 91.04V87.64H21.48C21.6133 87.6933 21.8667 87.8267 22.24 88.04C22.64 88.2267 23.0133 88.4133 23.36 88.6C23.7333 88.7867 23.92 88.9333 23.92 89.04C23.92 89.12 23.88 89.1867 23.8 89.24C22.5733 90.04 21.1867 90.72 19.64 91.28C18.12 91.84 16.6533 92.28 15.24 92.6C15 92.6533 14.7467 92.72 14.48 92.8C14.2133 92.8533 13.9467 92.88 13.68 92.88C13.6 92.88 13.4933 92.8533 13.36 92.8C13.2533 92.7467 13.2 92.6667 13.2 92.56C13.2 92.4 13.2533 92.28 13.36 92.2C13.4667 92.12 13.5733 92.0533 13.68 92C13.92 91.8667 14.16 91.7467 14.4 91.64C14.64 91.5067 14.88 91.36 15.12 91.2C15.8933 90.6933 16.6267 90.1467 17.32 89.56C18.0133 88.9467 18.68 88.3067 19.32 87.64H14.44V85.88H28.96V94.2C29.28 94.3067 29.6 94.4133 29.92 94.52C30.24 94.6 30.56 94.7067 30.88 94.84C30.9867 94.8667 31.0667 94.8933 31.12 94.92C31.2 94.9467 31.24 95.0267 31.24 95.16C31.24 95.2933 31.1333 95.5067 30.92 95.8C30.7333 96.0933 30.52 96.3867 30.28 96.68C30.0667 96.9467 29.9067 97.1333 29.8 97.24C29.96 97.16 30.2533 97.04 30.68 96.88C31.1067 96.72 31.56 96.5467 32.04 96.36C32.5467 96.1467 33 95.9733 33.4 95.84C33.8267 95.7067 34.1067 95.64 34.24 95.64C34.3733 95.64 34.52 95.6933 34.68 95.8C34.7067 95.8 34.8133 95.9467 35 96.24C35.2133 96.5067 35.4267 96.7867 35.64 97.08C35.8533 97.3733 35.9733 97.5467 36 97.6C36.7733 98.6133 37.7067 99.6133 38.8 100.6C39.8933 101.587 41.0533 102.493 42.28 103.32C43.5067 104.147 44.6933 104.84 45.84 105.4C46.0267 104.867 46.28 104.48 46.6 104.24C46.92 103.973 47.36 103.84 47.92 103.84C48.32 103.84 48.7067 104.04 49.08 104.44C49.4533 104.813 49.64 105.2 49.64 105.6ZM45.12 96.36H40.52V93.52C39.6933 93.7867 38.7867 94.0667 37.8 94.36C36.8133 94.6533 35.8267 94.9067 34.84 95.12C33.8533 95.3067 32.9333 95.4 32.08 95.4C31.84 95.4 31.72 95.3067 31.72 95.12C31.72 94.9867 31.8267 94.8667 32.04 94.76C32.2533 94.6267 32.4133 94.5333 32.52 94.48C33.9333 93.7867 35.24 93.08 36.44 92.36C37.6667 91.6133 38.84 90.6667 39.96 89.52L40.52 89.88V87.6H37.68C37.7867 87.6533 38 87.76 38.32 87.92C38.64 88.08 38.9467 88.2533 39.24 88.44C39.5333 88.6 39.68 88.7333 39.68 88.84C39.68 88.92 39.64 88.9867 39.56 89.04C38.7867 89.52 37.8133 90.0267 36.64 90.56C35.4933 91.0667 34.32 91.4933 33.12 91.84C31.92 92.1867 30.8533 92.36 29.92 92.36C29.84 92.36 29.7333 92.3467 29.6 92.32C29.4933 92.2667 29.44 92.1867 29.44 92.08C29.44 91.9467 29.4933 91.84 29.6 91.76C29.7067 91.68 29.8133 91.6133 29.92 91.56C30.9067 91.0267 31.8133 90.44 32.64 89.8C33.4667 89.1333 34.2667 88.4 35.04 87.6H30.36V85.88H45.12V96.36ZM47.56 80.92C47.56 81.6667 47.24 82.2 46.6 82.52C45.96 82.8133 45.3333 82.96 44.72 82.96H36.04C35.88 83.2 35.6 83.5333 35.2 83.96C34.8 84.36 34.3733 84.72 33.92 85.04C33.4667 85.36 33.08 85.52 32.76 85.52C32.6267 85.52 32.4933 85.4667 32.36 85.36C32.2267 85.2533 32.16 85.12 32.16 84.96C32.16 84.6133 32.16 84.28 32.16 83.96C32.16 83.64 32.1733 83.3067 32.2 82.96H26.28L26.4 84.92L21.68 85.16L21.56 82.96H12.64V81.08H21.48L21.28 77.6L26 77.44L26.2 81.08H32.4C32.48 80.44 32.5467 79.8133 32.6 79.2C32.6533 78.56 32.72 77.92 32.8 77.28L37.92 77.96C38.0533 77.9867 38.16 78.0267 38.24 78.08C38.32 78.1067 38.36 78.1867 38.36 78.32C38.36 78.5333 38.28 78.8267 38.12 79.2C37.96 79.5467 37.7733 79.8933 37.56 80.24C37.3733 80.5867 37.2133 80.8667 37.08 81.08H42.4C42.4533 80.4133 42.7067 79.8267 43.16 79.32C43.6133 78.7867 44.1867 78.52 44.88 78.52C45.6533 78.52 46.2933 78.72 46.8 79.12C47.3067 79.52 47.56 80.12 47.56 80.92ZM68.8 89.8C68.8 90.36 68.5467 90.7867 68.04 91.08C67.56 91.3467 67.08 91.48 66.6 91.48H63.24V94.8C63.6933 94.5867 64.1467 94.3733 64.6 94.16C65.0533 93.9467 65.5067 93.7467 65.96 93.56C66.0133 93.72 66.1333 94.0533 66.32 94.56C66.5333 95.0667 66.76 95.6533 67 96.32C67.2667 96.96 67.52 97.6 67.76 98.24C68.0267 98.8533 68.24 99.3733 68.4 99.8C68.56 100.227 68.64 100.453 68.64 100.48C68.64 100.667 68.56 100.813 68.4 100.92C68.2667 101 68.12 101.04 67.96 101.04C67.6667 101.04 67.24 100.853 66.68 100.48C66.1467 100.08 65.6133 99.64 65.08 99.16C64.7067 98.8133 64.3467 98.48 64 98.16C63.6533 97.8133 63.4 97.5467 63.24 97.36V113.8H58.56V98.48C58.1067 99.4667 57.4533 100.547 56.6 101.72C55.7467 102.893 54.8133 103.973 53.8 104.96C52.7867 105.947 51.76 106.653 50.72 107.08C50.6933 107.107 50.6267 107.12 50.52 107.12C50.4667 107.12 50.4 107.107 50.32 107.08C50.24 107.027 50.2 106.96 50.2 106.88C50.2 106.827 50.24 106.747 50.32 106.64C50.4 106.507 50.4933 106.347 50.6 106.16C50.76 105.84 50.9333 105.507 51.12 105.16C51.3333 104.787 51.4667 104.547 51.52 104.44C52.3733 102.707 53.0933 100.92 53.68 99.08C54.2667 97.24 54.72 95.3733 55.04 93.48C55.6267 93.6667 56.2133 93.8533 56.8 94.04C57.3867 94.2267 57.9733 94.4 58.56 94.56V91.48H52.08V89.72H58.56V84.56C57.4933 84.6933 56.4267 84.8133 55.36 84.92C54.2933 85 53.2133 85.04 52.12 85.04C52.0133 85.04 51.88 85.0267 51.72 85C51.56 84.9467 51.48 84.84 51.48 84.68C51.48 84.4667 51.64 84.32 51.96 84.24C52.1733 84.1867 52.4533 84.0933 52.8 83.96C53.1733 83.8267 53.4267 83.7467 53.56 83.72C55.5333 83.0267 57.4267 82.2133 59.24 81.28C61.0533 80.3467 62.8133 79.3067 64.52 78.16C64.8667 78.3733 65.2933 78.6667 65.8 79.04C66.3333 79.4133 66.84 79.7867 67.32 80.16C67.8 80.5067 68.1467 80.76 68.36 80.92C68.4933 81.0267 68.56 81.16 68.56 81.32C68.56 81.56 68.28 81.8133 67.72 82.08C67.32 82.2933 66.8 82.52 66.16 82.76C65.52 82.9733 64.92 83.16 64.36 83.32C63.8267 83.48 63.4533 83.5867 63.24 83.64V89.72H64.8C64.8 89.1867 65.0133 88.7467 65.44 88.4C65.8667 88.0267 66.3333 87.84 66.84 87.84C67.3733 87.84 67.8267 88.04 68.2 88.44C68.6 88.8133 68.8 89.2667 68.8 89.8ZM76.16 97.16C76.16 97.4 76.08 97.5867 75.92 97.72C75.76 97.8267 75.5733 97.88 75.36 97.88C75.2 97.88 75.0667 97.8533 74.96 97.8C74.8533 97.7467 74.7333 97.68 74.6 97.6C73.5067 96.96 72.3867 96.3467 71.24 95.76C70.12 95.1733 69.0133 94.5733 67.92 93.96C68.08 93.8 68.32 93.56 68.64 93.24C68.9867 92.8933 69.3467 92.5467 69.72 92.2C70.0933 91.8267 70.4 91.5067 70.64 91.24C71.12 90.7067 71.5467 90.44 71.92 90.44C72.16 90.44 72.4533 90.64 72.8 91.04C73.1467 91.4133 73.5067 91.8933 73.88 92.48C74.28 93.0667 74.6533 93.68 75 94.32C75.3467 94.9333 75.6267 95.5067 75.84 96.04C76.0533 96.5467 76.16 96.92 76.16 97.16ZM89.76 97.04C89.76 97.6 89.5867 98.1067 89.24 98.56C88.92 98.9867 88.4933 99.2667 87.96 99.4L82.8 100.8V114.08H78.2V101.84L67.32 104.6L66.72 102.52L78.2 99.6V79.56H82.8V98.56L84.76 98.04C84.68 97.9867 84.6267 97.88 84.6 97.72C84.5733 97.5333 84.56 97.3867 84.56 97.28C84.56 96.56 84.8267 95.96 85.36 95.48C85.8933 94.9733 86.52 94.72 87.24 94.72C87.8533 94.72 88.4267 94.9467 88.96 95.4C89.4933 95.8533 89.76 96.4 89.76 97.04ZM76.84 88.44C76.84 88.92 76.5733 89.16 76.04 89.16C75.9067 89.16 75.7733 89.1333 75.64 89.08C75.5333 89.0267 75.4133 88.9733 75.28 88.92C74.16 88.3333 73.04 87.7333 71.92 87.12C70.8267 86.48 69.7333 85.8533 68.64 85.24C68.8 85.08 69.0533 84.8133 69.4 84.44C69.7467 84.04 70.12 83.6267 70.52 83.2C70.9467 82.7733 71.3467 82.4133 71.72 82.12C72.0933 81.8 72.3733 81.64 72.56 81.64C72.8 81.64 73.0933 81.84 73.44 82.24C73.8133 82.6133 74.1867 83.0933 74.56 83.68C74.96 84.2667 75.3333 84.88 75.68 85.52C76.0267 86.16 76.3067 86.7467 76.52 87.28C76.7333 87.8133 76.84 88.2 76.84 88.44ZM119.4 105.92C119.4 106.747 119.067 107.453 118.4 108.04C117.76 108.6 117.093 109.04 116.4 109.36C115.04 110 113.587 110.48 112.04 110.8C110.52 111.093 109.013 111.24 107.52 111.24C106.24 111.24 104.96 111.12 103.68 110.88C102.427 110.64 101.24 110.24 100.12 109.68C99 109.12 98.0533 108.373 97.28 107.44C96.5067 106.48 95.9733 105.293 95.68 103.88C95.8667 103.747 96.2 103.507 96.68 103.16C97.1867 102.787 97.6933 102.44 98.2 102.12C98.7067 101.8 99.0533 101.64 99.24 101.64C99.48 101.64 99.64 101.787 99.72 102.08C99.8533 102.48 99.9867 102.867 100.12 103.24C100.253 103.587 100.427 103.947 100.64 104.32C101.493 105.76 102.707 106.867 104.28 107.64C105.853 108.413 107.453 108.8 109.08 108.8C110.173 108.8 111.227 108.72 112.24 108.56C113.28 108.373 114.307 108.107 115.32 107.76C115.133 107.547 114.96 107.293 114.8 107C114.667 106.68 114.6 106.373 114.6 106.08C114.6 105.493 114.84 104.987 115.32 104.56C115.8 104.107 116.32 103.88 116.88 103.88C117.413 103.88 117.96 104.067 118.52 104.44C119.107 104.813 119.4 105.307 119.4 105.92ZM117.32 86.28C117.32 86.92 117.04 87.6 116.48 88.32C115.92 89.0133 115.267 89.6533 114.52 90.24C113.8 90.8267 113.187 91.28 112.68 91.6C112.493 91.7333 112.28 91.88 112.04 92.04C111.827 92.1733 111.613 92.2933 111.4 92.4C111.213 92.48 111 92.52 110.76 92.52C110.573 92.52 110.413 92.48 110.28 92.4C110.147 92.2933 110.08 92.1467 110.08 91.96C110.08 91.7467 110.173 91.44 110.36 91.04C110.547 90.6133 110.733 90.16 110.92 89.68C111.107 89.1733 111.2 88.72 111.2 88.32C111.2 87.84 111.053 87.5067 110.76 87.32C110.493 87.1067 110.16 86.9733 109.76 86.92C109.387 86.84 109.027 86.7867 108.68 86.76C108.333 86.7333 107.96 86.72 107.56 86.72C107.187 86.6933 106.813 86.68 106.44 86.68C105.053 86.68 103.653 86.7467 102.24 86.88C100.853 87.0133 99.4667 87.16 98.08 87.32L98.12 84.84C100.973 84.6 103.84 84.48 106.72 84.48C108.32 84.48 109.92 84.5333 111.52 84.64C113.147 84.72 114.747 84.9333 116.32 85.28C116.533 85.3067 116.733 85.3867 116.92 85.52C117.187 85.6267 117.32 85.88 117.32 86.28ZM124.88 88.44C124.88 88.52 124.827 88.6133 124.72 88.72C124.64 88.8 124.547 88.84 124.44 88.84C124.253 88.84 123.933 88.76 123.48 88.6C123.027 88.44 122.52 88.24 121.96 88C121.427 87.76 120.907 87.5333 120.4 87.32C119.92 87.1067 119.547 86.96 119.28 86.88C119.2 86.8533 119.093 86.8133 118.96 86.76C118.853 86.7067 118.8 86.6267 118.8 86.52C118.8 86.36 118.96 86.0933 119.28 85.72C119.6 85.32 119.933 84.96 120.28 84.64C120.653 84.2933 120.92 84.12 121.08 84.12C121.373 84.12 121.733 84.2933 122.16 84.64C122.587 84.96 123 85.3733 123.4 85.88C123.827 86.36 124.173 86.84 124.44 87.32C124.733 87.7733 124.88 88.1467 124.88 88.44ZM127.36 84.72C127.36 84.8 127.307 84.8933 127.2 85C127.12 85.08 127.027 85.12 126.92 85.12C126.84 85.12 126.613 85.04 126.24 84.88C125.893 84.6933 125.493 84.4933 125.04 84.28C124.587 84.04 124.16 83.8133 123.76 83.6C123.387 83.3867 123.133 83.24 123 83.16C122.893 83.1067 122.693 83.04 122.4 82.96C122.133 82.8533 121.88 82.7333 121.64 82.6C121.4 82.4667 121.28 82.3467 121.28 82.24C121.28 82.08 121.44 81.8133 121.76 81.44C122.08 81.0667 122.427 80.72 122.8 80.4C123.2 80.08 123.48 79.92 123.64 79.92C123.96 79.92 124.333 80.1067 124.76 80.48C125.187 80.8533 125.587 81.32 125.96 81.88C126.36 82.4133 126.693 82.9467 126.96 83.48C127.227 83.9867 127.36 84.4 127.36 84.72ZM162.24 105.04C162.24 105.547 162.04 106.053 161.64 106.56C161.267 107.04 160.813 107.48 160.28 107.88C159.773 108.253 159.32 108.56 158.92 108.8C158.093 109.253 157.093 109.693 155.92 110.12C154.773 110.547 153.6 110.893 152.4 111.16C151.227 111.453 150.16 111.6 149.2 111.6C148.08 111.6 146.893 111.48 145.64 111.24C144.387 111.027 143.2 110.653 142.08 110.12C140.987 109.56 140.093 108.827 139.4 107.92C138.707 106.987 138.36 105.827 138.36 104.44C138.36 103.24 138.667 102.133 139.28 101.12C139.92 100.107 140.733 99.1867 141.72 98.36C142.707 97.5333 143.747 96.8 144.84 96.16C145.933 95.52 146.947 94.9733 147.88 94.52C147.4 94.1467 147.013 93.7067 146.72 93.2C146.427 92.6667 146.2 92.1067 146.04 91.52C145.933 91.1467 145.84 90.7733 145.76 90.4C145.707 90.0267 145.653 89.6533 145.6 89.28C145.413 87.8133 145.24 86.3467 145.08 84.88C144.947 83.4133 144.813 81.9467 144.68 80.48L149.48 80.2C149.533 81.3467 149.573 82.4933 149.6 83.64C149.627 84.7867 149.667 85.9467 149.72 87.12C149.747 87.7067 149.773 88.3067 149.8 88.92C149.827 89.5067 149.893 90.1067 150 90.72C150.027 90.8533 150.08 91.08 150.16 91.4C150.267 91.6933 150.4 91.9733 150.56 92.24C150.72 92.48 150.893 92.6 151.08 92.6C151.24 92.6 151.507 92.4933 151.88 92.28C152.253 92.04 152.627 91.8133 153 91.6C153.4 91.3867 153.72 91.28 153.96 91.28C154.2 91.28 154.373 91.32 154.48 91.4C154.613 91.48 154.773 91.6 154.96 91.76C155.147 91.92 155.387 92.1733 155.68 92.52C155.973 92.84 156.227 93.1867 156.44 93.56C156.68 93.9067 156.8 94.2133 156.8 94.48C156.8 94.9067 156.64 95.1867 156.32 95.32C156.027 95.4533 155.693 95.52 155.32 95.52C155.133 95.52 154.947 95.52 154.76 95.52C154.6 95.4933 154.427 95.48 154.24 95.48C153.147 95.48 151.92 95.6533 150.56 96C149.2 96.3467 147.893 96.8667 146.64 97.56C145.413 98.2533 144.387 99.1067 143.56 100.12C142.76 101.107 142.36 102.253 142.36 103.56C142.36 104.787 142.747 105.8 143.52 106.6C144.293 107.373 145.227 107.947 146.32 108.32C147.44 108.693 148.52 108.88 149.56 108.88C151.053 108.88 152.627 108.693 154.28 108.32C155.96 107.947 157.48 107.44 158.84 106.8C157.987 106.507 157.56 105.893 157.56 104.96C157.56 104.4 157.813 103.933 158.32 103.56C158.853 103.16 159.387 102.96 159.92 102.96C160.507 102.96 161.04 103.16 161.52 103.56C162 103.933 162.24 104.427 162.24 105.04ZM199.84 97.48C199.84 99.4533 199.413 101.293 198.56 103C197.707 104.68 196.587 106.2 195.2 107.56C193.973 108.787 192.653 109.773 191.24 110.52C189.827 111.267 188.32 111.933 186.72 112.52C186.453 112.6 186.027 112.733 185.44 112.92C184.88 113.107 184.32 113.28 183.76 113.44C183.2 113.6 182.8 113.68 182.56 113.68C182.453 113.68 182.333 113.64 182.2 113.56C182.067 113.507 182 113.413 182 113.28C182 113.12 182.067 112.987 182.2 112.88C182.333 112.773 182.453 112.707 182.56 112.68C183.093 112.467 183.707 112.2 184.4 111.88C185.093 111.56 185.707 111.227 186.24 110.88C187.787 109.893 189.213 108.733 190.52 107.4C191.853 106.04 192.92 104.52 193.72 102.84C194.52 101.16 194.92 99.3733 194.92 97.48C194.92 96.5733 194.773 95.6533 194.48 94.72C194.213 93.76 193.76 92.96 193.12 92.32C192.48 91.68 191.613 91.36 190.52 91.36C189.773 91.36 188.88 91.5733 187.84 92C186.827 92.4267 185.827 92.9467 184.84 93.56C183.88 94.1467 183.107 94.68 182.52 95.16C182.387 95.2667 182.24 95.3733 182.08 95.48C181.92 95.5867 181.733 95.64 181.52 95.64C181.253 95.64 181.067 95.56 180.96 95.4C180.88 95.2133 180.813 95.0267 180.76 94.84C180.627 94.3867 180.533 93.8933 180.48 93.36C180.453 92.8267 180.413 92.32 180.36 91.84C182.013 91.04 183.707 90.4133 185.44 89.96C187.173 89.5067 188.96 89.28 190.8 89.28C193.493 89.28 195.667 89.9333 197.32 91.24C199 92.5467 199.84 94.6267 199.84 97.48ZM194.6 85.92C194.6 86.16 194.467 86.3067 194.2 86.36C193.933 86.3867 193.72 86.4 193.56 86.4C192.947 86.4 192.333 86.36 191.72 86.28C191.133 86.1733 190.533 86.0533 189.92 85.92C189.707 85.8667 189.28 85.7333 188.64 85.52C188.027 85.3067 187.36 85.0667 186.64 84.8C185.947 84.5067 185.347 84.2267 184.84 83.96C184.333 83.6667 184.08 83.4133 184.08 83.2C184.08 83.12 184.187 82.9333 184.4 82.64C184.613 82.32 184.867 81.9867 185.16 81.64C185.48 81.2667 185.773 80.9333 186.04 80.64C186.307 80.3467 186.48 80.16 186.56 80.08C186.773 79.92 187 79.84 187.24 79.84C187.4 79.84 187.533 79.88 187.64 79.96C187.827 80.0667 188.067 80.28 188.36 80.6C188.653 80.8933 188.88 81.12 189.04 81.28C189.707 82.0267 190.44 82.7067 191.24 83.32C192.067 83.9067 192.893 84.4667 193.72 85C193.88 85.1067 194.067 85.2267 194.28 85.36C194.493 85.4933 194.6 85.68 194.6 85.92ZM226.88 102.36L226.8 110.04C227.813 109.907 228.813 109.707 229.8 109.44C230.813 109.173 231.8 108.867 232.76 108.52C232.227 107.907 231.72 107.28 231.24 106.64C230.76 106 230.293 105.347 229.84 104.68C230.96 104.307 232.08 103.933 233.2 103.56C234.32 103.187 235.427 102.787 236.52 102.36H226.88ZM224.28 89.72V87.08H221.32V89.72H224.28ZM224.28 85.44V82.92H221.32V85.44H224.28ZM231.24 89.72V87.08H228.64V89.72H231.24ZM231.24 85.44V82.92H228.64V85.44H231.24ZM238.96 82.92H235.64V85.44H235.84C235.92 85.1467 236.08 84.92 236.32 84.76C236.587 84.5733 236.867 84.48 237.16 84.48C237.533 84.48 237.84 84.6133 238.08 84.88C238.32 85.12 238.44 85.4267 238.44 85.8C238.44 86.3067 238.28 86.6533 237.96 86.84C237.64 87 237.267 87.08 236.84 87.08C236.413 87.08 236.013 87.08 235.64 87.08V89.72H236.2C237.133 89.72 237.827 89.4667 238.28 88.96C238.733 88.4267 238.96 87.7067 238.96 86.8V82.92ZM247.72 112.92C247.72 113.373 247.52 113.76 247.12 114.08C246.747 114.427 246.333 114.6 245.88 114.6C243.453 114.6 241.28 114.16 239.36 113.28C237.467 112.427 235.653 111.187 233.92 109.56C232.373 111.027 230.587 112.08 228.56 112.72C226.533 113.36 224.493 113.827 222.44 114.12L222.52 102.36H220.48C220.213 104.467 219.653 106.427 218.8 108.24C217.947 110.027 216.64 111.587 214.88 112.92C214.533 113.187 214.067 113.467 213.48 113.76C212.893 114.08 212.373 114.24 211.92 114.24C211.813 114.24 211.72 114.187 211.64 114.08C211.587 114 211.56 113.92 211.56 113.84C211.56 113.787 211.667 113.613 211.88 113.32C212.12 113.053 212.36 112.76 212.6 112.44C212.867 112.12 213.027 111.907 213.08 111.8C214.413 109.827 215.253 107.707 215.6 105.44C215.973 103.173 216.16 100.867 216.16 98.52C216.16 97.6133 216.147 96.72 216.12 95.84C216.12 94.9333 216.107 94.0267 216.08 93.12H242C242.027 92.5067 242.227 91.9733 242.6 91.52C243 91.04 243.52 90.8 244.16 90.8C244.773 90.8 245.32 90.9733 245.8 91.32C246.307 91.64 246.56 92.1333 246.56 92.8C246.56 93.52 246.333 94.04 245.88 94.36C245.453 94.68 244.907 94.84 244.24 94.84H220.8C220.8 95.5067 220.8 96.1733 220.8 96.84C220.827 97.5067 220.84 98.1867 220.84 98.88C220.84 99.1467 220.827 99.4267 220.8 99.72C220.8 99.9867 220.787 100.267 220.76 100.56H242.72C242.773 100.027 243 99.5733 243.4 99.2C243.827 98.8267 244.307 98.64 244.84 98.64C245.373 98.64 245.867 98.8133 246.32 99.16C246.773 99.48 247 99.92 247 100.48C247 101.013 246.8 101.467 246.4 101.84C246.027 102.187 245.573 102.36 245.04 102.36H240.6C240.707 102.44 240.907 102.613 241.2 102.88C241.493 103.147 241.773 103.413 242.04 103.68C242.307 103.947 242.44 104.133 242.44 104.24C242.44 104.427 242.32 104.587 242.08 104.72C242.027 104.747 241.707 104.787 241.12 104.84C240.533 104.893 239.84 104.947 239.04 105C238.267 105.053 237.547 105.107 236.88 105.16C236.213 105.187 235.773 105.213 235.56 105.24C236.547 106.787 237.747 108.24 239.16 109.6C240.6 110.96 242.133 112.067 243.76 112.92V112.88C243.867 112.347 244.093 111.893 244.44 111.52C244.813 111.173 245.293 111 245.88 111C246.413 111 246.853 111.187 247.2 111.56C247.547 111.933 247.72 112.387 247.72 112.92ZM240.76 97C240.76 97.5067 240.573 97.9067 240.2 98.2C239.853 98.4667 239.44 98.6 238.96 98.6H223.56V96.88H237.28C237.36 96.48 237.573 96.1467 237.92 95.88C238.267 95.6133 238.64 95.48 239.04 95.48C239.44 95.48 239.827 95.6267 240.2 95.92C240.573 96.2133 240.76 96.5733 240.76 97ZM243.64 87C243.64 88.2533 243.333 89.1867 242.72 89.8C242.107 90.3867 241.333 90.7733 240.4 90.96C239.467 91.1467 238.493 91.24 237.48 91.24H216.84V81.2H224.28V77.76H228.64V81.2H231.24V77.8H235.64V81.2H243.64V87ZM273.52 95.4H265.28V98.36H271.92C272.507 98.36 272.92 98.1867 273.16 97.84C273.4 97.4933 273.52 97.0533 273.52 96.52V95.4ZM280.32 107.04C280.32 107.44 280.16 107.8 279.84 108.12C279.547 108.44 279.187 108.6 278.76 108.6C277.933 108.6 277.053 108.32 276.12 107.76C275.187 107.2 274.32 106.547 273.52 105.8C272.72 105.027 272.067 104.333 271.56 103.72V109.76H267.16V103.12C266.093 104.133 264.907 105.013 263.6 105.76C262.32 106.507 260.947 107.027 259.48 107.32C259.453 107.32 259.413 107.333 259.36 107.36C259.307 107.36 259.253 107.36 259.2 107.36C259.12 107.36 259.027 107.347 258.92 107.32C258.84 107.267 258.8 107.187 258.8 107.08C258.8 106.92 258.893 106.773 259.08 106.64C260.387 105.68 261.587 104.653 262.68 103.56C263.773 102.44 264.747 101.2 265.6 99.84H261.16V93.84H277.76V96.4C277.76 97.4933 277.36 98.3467 276.56 98.96C275.787 99.5467 274.893 99.84 273.88 99.84H271.56V102.64C272.653 102.107 273.733 101.547 274.8 100.96C275.867 100.347 276.88 99.6667 277.84 98.92C278 99.0533 278.28 99.2933 278.68 99.64C279.08 99.9867 279.453 100.347 279.8 100.72C280.147 101.093 280.32 101.373 280.32 101.56C280.32 101.747 280.253 101.88 280.12 101.96C280.013 102.04 279.72 102.12 279.24 102.2C278.76 102.253 278.213 102.32 277.6 102.4C277.013 102.453 276.453 102.507 275.92 102.56C275.413 102.613 275.053 102.653 274.84 102.68C275.133 103.293 275.533 104 276.04 104.8C276.573 105.6 277.08 106.253 277.56 106.76C277.667 106.467 277.84 106.227 278.08 106.04C278.347 105.827 278.64 105.72 278.96 105.72C279.333 105.72 279.653 105.853 279.92 106.12C280.187 106.36 280.32 106.667 280.32 107.04ZM280.2 90.32C280.2 90.8533 280.027 91.28 279.68 91.6C279.333 91.92 278.893 92.08 278.36 92.08H259.44V90.44H267.2V87.72H261.52V86.04H267.2V83.04H271.6V86.04H274C274 85.5067 274.187 85.0667 274.56 84.72C274.96 84.3467 275.427 84.16 275.96 84.16C276.413 84.16 276.84 84.3467 277.24 84.72C277.64 85.0933 277.84 85.5067 277.84 85.96C277.84 86.4933 277.627 86.92 277.2 87.24C276.8 87.56 276.347 87.72 275.84 87.72H271.6V90.44H276.44C276.493 89.9067 276.693 89.4667 277.04 89.12C277.387 88.7467 277.827 88.56 278.36 88.56C278.84 88.56 279.267 88.7333 279.64 89.08C280.013 89.4267 280.2 89.84 280.2 90.32ZM281.16 82.32H258.72L258.64 111H276.44C277.72 111 278.693 110.707 279.36 110.12C280.053 109.507 280.52 108.72 280.76 107.76C281.027 106.773 281.16 105.747 281.16 104.68V82.32ZM286 104.4C286 107.573 285.28 109.813 283.84 111.12C282.4 112.453 280.107 113.12 276.96 113.12H254.08L254.16 80.16H286V104.4Z" fill="#4E301B"/>
<path d="M88.3927 129.37C88.3927 129.501 88.3367 129.566 88.2247 129.566C88.1874 129.566 88.1547 129.566 88.1267 129.566C88.0987 129.557 88.0754 129.533 88.0567 129.496C88.0474 129.477 88.0334 129.435 88.0147 129.37C88.0054 129.295 88.0007 129.244 88.0007 129.216C87.9541 128.936 87.8841 128.628 87.7907 128.292C87.7067 127.947 87.5714 127.667 87.3847 127.452C87.2914 127.34 87.1327 127.265 86.9087 127.228C86.6847 127.191 86.4561 127.172 86.2227 127.172C85.9894 127.172 85.8074 127.172 85.6767 127.172C85.5367 127.172 85.3641 127.172 85.1587 127.172C84.9627 127.172 84.7854 127.209 84.6267 127.284C84.4774 127.359 84.4027 127.508 84.4027 127.732C84.4027 129.141 84.4074 130.555 84.4167 131.974C84.4354 133.383 84.4447 134.797 84.4447 136.216C84.4447 136.337 84.4961 136.431 84.5987 136.496C84.7014 136.552 84.8181 136.589 84.9487 136.608C85.0794 136.627 85.1867 136.636 85.2707 136.636C85.3454 136.636 85.4107 136.636 85.4667 136.636C85.5321 136.627 85.5974 136.622 85.6627 136.622C85.7561 136.622 85.8027 136.664 85.8027 136.748C85.8027 136.785 85.8027 136.841 85.8027 136.916C85.8027 136.981 85.7701 137.014 85.7047 137.014C85.3687 137.014 85.0327 137.009 84.6967 137C84.3701 136.981 84.0387 136.972 83.7027 136.972C83.2547 136.972 82.7974 136.986 82.3307 137.014C82.2281 137.014 82.1207 137.019 82.0087 137.028C81.8967 137.037 81.7894 137.042 81.6867 137.042C81.6027 137.042 81.5607 136.991 81.5607 136.888C81.5607 136.776 81.5747 136.706 81.6027 136.678C81.6307 136.65 81.6961 136.636 81.7987 136.636C81.8174 136.636 81.8361 136.641 81.8547 136.65C81.8827 136.65 81.9014 136.65 81.9107 136.65C82.0134 136.65 82.1441 136.641 82.3027 136.622C82.4614 136.603 82.6014 136.566 82.7227 136.51C82.8534 136.445 82.9187 136.347 82.9187 136.216C82.9281 135.497 82.9327 134.779 82.9327 134.06C82.9421 133.341 82.9467 132.623 82.9467 131.904C82.9467 131.195 82.9421 130.49 82.9327 129.79C82.9234 129.081 82.9187 128.371 82.9187 127.662C82.9187 127.55 82.8721 127.447 82.7787 127.354C82.6947 127.261 82.6014 127.209 82.4987 127.2C82.4147 127.181 82.3261 127.172 82.2327 127.172C82.1487 127.172 82.0601 127.172 81.9667 127.172H80.7207C80.3847 127.172 80.1327 127.256 79.9647 127.424C79.8061 127.583 79.6941 127.793 79.6287 128.054C79.5634 128.306 79.5027 128.567 79.4467 128.838C79.4467 128.857 79.4327 128.922 79.4047 129.034C79.3861 129.137 79.3627 129.239 79.3347 129.342C79.3161 129.435 79.3021 129.487 79.2927 129.496C79.2554 129.543 79.1994 129.566 79.1247 129.566C79.0221 129.566 78.9707 129.515 78.9707 129.412C78.9707 129.375 78.9707 129.328 78.9707 129.272C78.9801 129.207 78.9894 129.132 78.9987 129.048C79.0174 128.833 79.0314 128.577 79.0407 128.278C79.0594 127.97 79.0734 127.685 79.0827 127.424C79.0921 127.331 79.0967 127.237 79.0967 127.144C79.0967 127.051 79.1014 126.967 79.1107 126.892C79.1107 126.761 79.1901 126.705 79.3487 126.724C80.0301 126.789 80.7161 126.822 81.4067 126.822C82.1067 126.813 82.7974 126.808 83.4787 126.808H84.6687C85.0514 126.808 85.4341 126.808 85.8167 126.808C86.2087 126.799 86.6007 126.789 86.9927 126.78C87.1607 126.771 87.3334 126.766 87.5107 126.766C87.6974 126.757 87.8794 126.752 88.0567 126.752C88.1781 126.752 88.2481 126.799 88.2667 126.892C88.2761 126.92 88.2854 127.023 88.2947 127.2C88.3041 127.368 88.3134 127.564 88.3227 127.788C88.3321 128.003 88.3367 128.208 88.3367 128.404C88.3461 128.591 88.3507 128.721 88.3507 128.796C88.3601 128.889 88.3694 128.983 88.3787 129.076C88.3881 129.169 88.3927 129.267 88.3927 129.37ZM93.5787 135.362C93.5414 134.942 93.5181 134.522 93.5087 134.102C93.5087 133.673 93.5041 133.243 93.4947 132.814H93.2987C93.0094 132.814 92.6874 132.861 92.3327 132.954C91.9874 133.038 91.6561 133.169 91.3387 133.346C91.0214 133.523 90.7601 133.747 90.5547 134.018C90.3587 134.279 90.2607 134.583 90.2607 134.928C90.2607 135.376 90.3867 135.717 90.6387 135.95C90.8907 136.174 91.2314 136.286 91.6607 136.286C91.8661 136.286 92.0901 136.239 92.3327 136.146C92.5754 136.043 92.8087 135.922 93.0327 135.782C93.2567 135.642 93.4387 135.502 93.5787 135.362ZM96.0287 136.258C96.0287 136.295 96.0241 136.323 96.0147 136.342C95.9214 136.547 95.7627 136.706 95.5387 136.818C95.3241 136.921 95.1094 136.972 94.8947 136.972C94.5027 136.972 94.2181 136.86 94.0407 136.636C93.8727 136.403 93.7374 136.118 93.6347 135.782C93.2801 136.109 92.8881 136.384 92.4587 136.608C92.0294 136.823 91.5674 136.93 91.0727 136.93C90.7274 136.93 90.4007 136.865 90.0927 136.734C89.7941 136.594 89.5514 136.393 89.3647 136.132C89.1781 135.871 89.0847 135.553 89.0847 135.18C89.0847 134.788 89.1827 134.452 89.3787 134.172C89.5841 133.883 89.8407 133.64 90.1487 133.444C90.4661 133.239 90.8021 133.075 91.1567 132.954C91.5207 132.823 91.8614 132.725 92.1787 132.66C92.3934 132.613 92.6127 132.571 92.8367 132.534C93.0607 132.497 93.2801 132.459 93.4947 132.422C93.4947 132.161 93.4807 131.857 93.4527 131.512C93.4341 131.167 93.3641 130.882 93.2427 130.658C93.1214 130.443 92.9581 130.252 92.7527 130.084C92.5474 129.916 92.3187 129.832 92.0667 129.832C91.6374 129.832 91.3014 129.944 91.0587 130.168C90.8161 130.392 90.6434 130.709 90.5407 131.12C90.5314 131.167 90.5221 131.218 90.5127 131.274C90.5127 131.321 90.5081 131.367 90.4987 131.414C90.4894 131.47 90.4521 131.521 90.3867 131.568C90.3307 131.605 90.2701 131.624 90.2047 131.624C90.0274 131.624 89.8641 131.582 89.7147 131.498C89.5747 131.414 89.5047 131.274 89.5047 131.078C89.5047 130.966 89.5234 130.868 89.5607 130.784C89.6821 130.495 89.8781 130.257 90.1487 130.07C90.4194 129.874 90.7181 129.725 91.0447 129.622C91.3807 129.519 91.6934 129.468 91.9827 129.468C92.4867 129.468 92.9441 129.561 93.3547 129.748C93.7654 129.935 94.0921 130.21 94.3347 130.574C94.5867 130.929 94.7127 131.377 94.7127 131.918C94.7127 132.525 94.7081 133.136 94.6987 133.752C94.6987 134.368 94.7174 134.984 94.7547 135.6C94.7641 135.805 94.8061 135.987 94.8807 136.146C94.9554 136.295 95.1094 136.37 95.3427 136.37C95.4641 136.37 95.5901 136.342 95.7207 136.286C95.8607 136.221 95.9494 136.188 95.9867 136.188C96.0147 136.188 96.0287 136.211 96.0287 136.258ZM101.222 136.356C101.222 136.44 101.157 136.524 101.026 136.608C100.905 136.692 100.755 136.767 100.578 136.832C100.401 136.897 100.228 136.949 100.06 136.986C99.9013 137.023 99.7846 137.042 99.71 137.042C99.2246 137.042 98.8466 136.981 98.576 136.86C98.3146 136.739 98.128 136.538 98.016 136.258C97.9133 135.978 97.862 135.6 97.862 135.124C97.862 134.349 97.862 133.575 97.862 132.8C97.8713 132.016 97.8806 131.237 97.89 130.462H96.882C96.8166 130.462 96.7606 130.481 96.714 130.518C96.6766 130.546 96.6346 130.56 96.588 130.56C96.5413 130.56 96.518 130.527 96.518 130.462C96.518 130.425 96.5413 130.35 96.588 130.238C96.644 130.126 96.6813 130.051 96.7 130.014C96.728 130.023 96.77 130.028 96.826 130.028H97.918L97.932 128.25C98.1466 128.11 98.3426 127.956 98.52 127.788C98.6973 127.611 98.8746 127.433 99.052 127.256C99.0706 127.237 99.0893 127.223 99.108 127.214C99.1266 127.195 99.1453 127.186 99.164 127.186C99.248 127.186 99.29 127.219 99.29 127.284L99.206 130.014C99.5046 130.014 99.7986 130.009 100.088 130C100.387 129.991 100.681 129.986 100.97 129.986C101.091 129.986 101.152 130.056 101.152 130.196C101.152 130.373 101.073 130.462 100.914 130.462H99.206C99.206 131.171 99.2013 131.885 99.192 132.604C99.192 133.313 99.192 134.027 99.192 134.746V135.824C99.192 136.057 99.29 136.221 99.486 136.314C99.682 136.398 99.8733 136.44 100.06 136.44C100.321 136.44 100.578 136.398 100.83 136.314C100.858 136.295 100.9 136.277 100.956 136.258C101.012 136.239 101.054 136.23 101.082 136.23C101.175 136.23 101.222 136.272 101.222 136.356ZM107.047 132.086C107.038 131.703 107.005 131.339 106.949 130.994C106.893 130.639 106.758 130.35 106.543 130.126C106.328 129.893 105.978 129.776 105.493 129.776C105.054 129.776 104.695 129.897 104.415 130.14C104.144 130.373 103.934 130.672 103.785 131.036C103.636 131.391 103.524 131.755 103.449 132.128C103.682 132.137 103.911 132.147 104.135 132.156C104.359 132.156 104.583 132.156 104.807 132.156C105.18 132.156 105.554 132.151 105.927 132.142C106.3 132.123 106.674 132.105 107.047 132.086ZM108.657 135.292C108.657 135.339 108.648 135.367 108.629 135.376C108.601 135.469 108.531 135.581 108.419 135.712C108.316 135.843 108.2 135.969 108.069 136.09C107.938 136.202 107.831 136.286 107.747 136.342C107.439 136.557 107.089 136.729 106.697 136.86C106.314 136.991 105.932 137.056 105.549 137.056C105.232 137.056 104.877 137.005 104.485 136.902C104.102 136.799 103.776 136.659 103.505 136.482C102.982 136.137 102.6 135.684 102.357 135.124C102.114 134.564 101.993 133.981 101.993 133.374C101.993 132.683 102.128 132.044 102.399 131.456C102.67 130.868 103.104 130.392 103.701 130.028C103.972 129.869 104.275 129.739 104.611 129.636C104.947 129.524 105.269 129.468 105.577 129.468C106.128 129.468 106.613 129.58 107.033 129.804C107.453 130.028 107.78 130.345 108.013 130.756C108.256 131.157 108.377 131.638 108.377 132.198C108.377 132.357 108.34 132.459 108.265 132.506C108.2 132.553 108.097 132.576 107.957 132.576C107.77 132.576 107.584 132.571 107.397 132.562C107.21 132.553 107.024 132.543 106.837 132.534C106.576 132.515 106.314 132.506 106.053 132.506C105.801 132.506 105.544 132.506 105.283 132.506C104.966 132.506 104.648 132.506 104.331 132.506C104.014 132.506 103.696 132.515 103.379 132.534C103.37 132.683 103.36 132.828 103.351 132.968C103.342 133.108 103.337 133.253 103.337 133.402C103.337 133.747 103.379 134.107 103.463 134.48C103.547 134.844 103.682 135.185 103.869 135.502C104.056 135.81 104.294 136.062 104.583 136.258C104.872 136.445 105.222 136.538 105.633 136.538C106.053 136.538 106.454 136.473 106.837 136.342C107.22 136.211 107.57 136.001 107.887 135.712C107.971 135.628 108.046 135.539 108.111 135.446C108.186 135.343 108.265 135.255 108.349 135.18C108.396 135.133 108.447 135.11 108.503 135.11C108.55 135.11 108.587 135.129 108.615 135.166C108.643 135.203 108.657 135.245 108.657 135.292ZM114.76 134.998C114.76 135.418 114.667 135.763 114.48 136.034C114.293 136.295 114.051 136.496 113.752 136.636C113.453 136.776 113.127 136.874 112.772 136.93C112.417 136.986 112.072 137.014 111.736 137.014C111.428 137.014 111.12 136.981 110.812 136.916C110.513 136.851 110.21 136.804 109.902 136.776C109.837 136.524 109.771 136.272 109.706 136.02C109.65 135.768 109.585 135.521 109.51 135.278C109.501 135.25 109.477 135.185 109.44 135.082C109.412 134.979 109.398 134.923 109.398 134.914C109.398 134.839 109.421 134.788 109.468 134.76C109.515 134.723 109.571 134.704 109.636 134.704C109.701 134.704 109.748 134.727 109.776 134.774C109.832 134.839 109.879 134.928 109.916 135.04C109.963 135.152 110.005 135.25 110.042 135.334C110.117 135.483 110.182 135.6 110.238 135.684C110.294 135.759 110.383 135.857 110.504 135.978C110.868 136.361 111.321 136.552 111.862 136.552C112.161 136.552 112.431 136.519 112.674 136.454C112.926 136.389 113.127 136.267 113.276 136.09C113.425 135.903 113.5 135.637 113.5 135.292C113.5 134.993 113.407 134.746 113.22 134.55C113.033 134.345 112.791 134.163 112.492 134.004C112.203 133.845 111.895 133.691 111.568 133.542C111.241 133.393 110.929 133.229 110.63 133.052C110.341 132.865 110.103 132.641 109.916 132.38C109.729 132.119 109.636 131.801 109.636 131.428C109.636 130.971 109.753 130.597 109.986 130.308C110.229 130.019 110.537 129.804 110.91 129.664C111.283 129.515 111.671 129.44 112.072 129.44C112.333 129.44 112.567 129.473 112.772 129.538C112.987 129.603 113.211 129.678 113.444 129.762C113.519 129.79 113.593 129.809 113.668 129.818C113.743 129.827 113.817 129.832 113.892 129.832C113.939 129.832 113.981 129.832 114.018 129.832C114.055 129.832 114.093 129.827 114.13 129.818C114.158 129.986 114.181 130.159 114.2 130.336C114.228 130.504 114.251 130.677 114.27 130.854C114.279 130.919 114.289 130.999 114.298 131.092C114.317 131.176 114.326 131.255 114.326 131.33C114.326 131.395 114.312 131.465 114.284 131.54C114.256 131.605 114.2 131.638 114.116 131.638C114.051 131.638 113.995 131.633 113.948 131.624C113.911 131.605 113.878 131.563 113.85 131.498C113.803 131.405 113.761 131.307 113.724 131.204C113.696 131.092 113.663 130.989 113.626 130.896C113.505 130.569 113.295 130.308 112.996 130.112C112.697 129.907 112.375 129.804 112.03 129.804C111.591 129.804 111.26 129.935 111.036 130.196C110.812 130.448 110.7 130.789 110.7 131.218C110.7 131.367 110.737 131.512 110.812 131.652C110.896 131.792 110.989 131.913 111.092 132.016C111.288 132.203 111.517 132.347 111.778 132.45C112.049 132.553 112.305 132.655 112.548 132.758C112.865 132.898 113.192 133.066 113.528 133.262C113.873 133.458 114.163 133.696 114.396 133.976C114.639 134.256 114.76 134.597 114.76 134.998ZM123.976 136.846C123.976 136.893 123.953 136.93 123.906 136.958C123.859 136.977 123.813 136.986 123.766 136.986C123.533 136.986 123.295 136.981 123.052 136.972C122.819 136.953 122.581 136.944 122.338 136.944C122.067 136.944 121.792 136.953 121.512 136.972C121.241 136.991 120.971 137 120.7 137C120.653 137 120.621 136.972 120.602 136.916C120.593 136.851 120.588 136.799 120.588 136.762C120.588 136.697 120.621 136.664 120.686 136.664C120.789 136.664 120.887 136.669 120.98 136.678C121.083 136.678 121.181 136.678 121.274 136.678C121.395 136.678 121.489 136.641 121.554 136.566C121.629 136.482 121.671 136.384 121.68 136.272C121.699 136.039 121.703 135.805 121.694 135.572C121.694 135.339 121.694 135.11 121.694 134.886C121.694 134.606 121.694 134.331 121.694 134.06C121.694 133.78 121.694 133.5 121.694 133.22C121.694 132.94 121.694 132.66 121.694 132.38C121.694 132.1 121.685 131.82 121.666 131.54C121.657 131.419 121.643 131.302 121.624 131.19C121.615 131.069 121.591 130.952 121.554 130.84C121.461 130.588 121.307 130.397 121.092 130.266C120.887 130.126 120.649 130.056 120.378 130.056C120.061 130.056 119.748 130.14 119.44 130.308C119.132 130.467 118.875 130.667 118.67 130.91C118.446 131.171 118.283 131.4 118.18 131.596C118.077 131.792 118.012 131.997 117.984 132.212C117.965 132.427 117.956 132.707 117.956 133.052V135.516C117.956 135.619 117.951 135.763 117.942 135.95C117.942 136.137 117.965 136.305 118.012 136.454C118.068 136.603 118.175 136.678 118.334 136.678C118.427 136.678 118.516 136.673 118.6 136.664C118.684 136.655 118.773 136.65 118.866 136.65C118.95 136.65 118.992 136.697 118.992 136.79C118.992 136.837 118.983 136.883 118.964 136.93C118.955 136.967 118.922 136.986 118.866 136.986C118.549 136.986 118.222 136.981 117.886 136.972C117.559 136.953 117.233 136.944 116.906 136.944C116.607 136.944 116.304 136.958 115.996 136.986C115.959 136.986 115.926 136.991 115.898 137C115.87 137 115.837 137 115.8 137C115.753 137 115.716 136.977 115.688 136.93C115.669 136.874 115.66 136.827 115.66 136.79C115.66 136.687 115.711 136.636 115.814 136.636C115.87 136.636 115.926 136.641 115.982 136.65C116.038 136.65 116.099 136.65 116.164 136.65C116.295 136.65 116.43 136.631 116.57 136.594C116.719 136.547 116.799 136.44 116.808 136.272C116.827 135.964 116.831 135.656 116.822 135.348C116.822 135.04 116.822 134.737 116.822 134.438C116.822 133.859 116.822 133.285 116.822 132.716C116.831 132.147 116.836 131.577 116.836 131.008C116.836 130.411 116.831 129.818 116.822 129.23C116.813 128.633 116.803 128.035 116.794 127.438C116.794 127.335 116.775 127.223 116.738 127.102C116.701 126.971 116.617 126.906 116.486 126.906C116.355 126.906 116.22 126.915 116.08 126.934C115.94 126.953 115.8 126.962 115.66 126.962C115.576 126.962 115.534 126.925 115.534 126.85C115.534 126.766 115.576 126.71 115.66 126.682C115.847 126.635 116.029 126.598 116.206 126.57C116.393 126.542 116.575 126.509 116.752 126.472C116.911 126.435 117.097 126.383 117.312 126.318C117.536 126.243 117.723 126.206 117.872 126.206C117.928 126.206 117.961 126.225 117.97 126.262C117.979 126.29 117.984 126.327 117.984 126.374C117.984 127.139 117.984 127.905 117.984 128.67C117.984 129.435 117.975 130.201 117.956 130.966C118.161 130.751 118.409 130.537 118.698 130.322C118.997 130.107 119.314 129.93 119.65 129.79C119.986 129.641 120.303 129.566 120.602 129.566C121.209 129.566 121.685 129.655 122.03 129.832C122.375 130.009 122.618 130.285 122.758 130.658C122.898 131.022 122.968 131.498 122.968 132.086C122.968 132.786 122.963 133.486 122.954 134.186C122.954 134.877 122.954 135.572 122.954 136.272C122.954 136.421 122.991 136.529 123.066 136.594C123.15 136.65 123.267 136.678 123.416 136.678C123.481 136.678 123.542 136.673 123.598 136.664C123.663 136.655 123.729 136.65 123.794 136.65C123.841 136.65 123.883 136.673 123.92 136.72C123.957 136.757 123.976 136.799 123.976 136.846ZM128.55 136.79C128.55 136.837 128.536 136.883 128.508 136.93C128.48 136.967 128.443 136.986 128.396 136.986C128.135 136.986 127.874 136.981 127.612 136.972C127.36 136.953 127.099 136.944 126.828 136.944H126.45C126.17 136.944 125.89 136.953 125.61 136.972C125.34 136.981 125.069 136.986 124.798 136.986C124.761 136.986 124.733 136.963 124.714 136.916C124.705 136.869 124.7 136.832 124.7 136.804C124.7 136.757 124.705 136.725 124.714 136.706C124.724 136.678 124.752 136.659 124.798 136.65C124.845 136.631 124.896 136.627 124.952 136.636C125.018 136.636 125.078 136.636 125.134 136.636C125.2 136.636 125.26 136.641 125.316 136.65C125.372 136.65 125.433 136.65 125.498 136.65C125.629 136.65 125.746 136.622 125.848 136.566C125.96 136.501 126.016 136.393 126.016 136.244V130.644C126.016 130.485 125.988 130.364 125.932 130.28C125.876 130.187 125.76 130.14 125.582 130.14C125.452 130.14 125.316 130.149 125.176 130.168C125.046 130.177 124.915 130.191 124.784 130.21C124.71 130.21 124.672 130.168 124.672 130.084C124.672 129.991 124.71 129.93 124.784 129.902C124.896 129.865 125.013 129.841 125.134 129.832C125.265 129.813 125.386 129.795 125.498 129.776C125.76 129.729 126.021 129.678 126.282 129.622C126.544 129.566 126.8 129.505 127.052 129.44C127.08 129.431 127.118 129.426 127.164 129.426C127.267 129.426 127.318 129.482 127.318 129.594C127.318 130.695 127.314 131.801 127.304 132.912C127.304 134.023 127.304 135.133 127.304 136.244C127.304 136.393 127.37 136.501 127.5 136.566C127.64 136.622 127.771 136.65 127.892 136.65C127.986 136.65 128.079 136.645 128.172 136.636C128.275 136.627 128.373 136.622 128.466 136.622C128.504 136.622 128.527 136.645 128.536 136.692C128.546 136.739 128.55 136.771 128.55 136.79ZM127.416 127.102C127.416 127.335 127.332 127.536 127.164 127.704C126.996 127.863 126.796 127.942 126.562 127.942C126.329 127.942 126.128 127.863 125.96 127.704C125.792 127.536 125.708 127.335 125.708 127.102C125.708 126.869 125.792 126.673 125.96 126.514C126.128 126.346 126.329 126.262 126.562 126.262C126.796 126.262 126.996 126.346 127.164 126.514C127.332 126.673 127.416 126.869 127.416 127.102ZM137.563 136.79C137.563 136.911 137.493 136.972 137.353 136.972C137.147 136.972 136.937 136.967 136.723 136.958C136.508 136.939 136.293 136.93 136.079 136.93C135.761 136.93 135.435 136.939 135.099 136.958C134.772 136.967 134.445 136.972 134.119 136.972C134.081 136.972 134.058 136.944 134.049 136.888C134.039 136.823 134.035 136.771 134.035 136.734C134.035 136.659 134.081 136.622 134.175 136.622C134.268 136.622 134.343 136.622 134.399 136.622C134.445 136.622 134.492 136.627 134.539 136.636C134.595 136.636 134.646 136.636 134.693 136.636C134.963 136.636 135.113 136.501 135.141 136.23C135.169 135.679 135.178 135.124 135.169 134.564C135.169 134.004 135.169 133.449 135.169 132.898C135.169 132.795 135.169 132.693 135.169 132.59C135.169 132.478 135.169 132.371 135.169 132.268C135.159 132.053 135.145 131.792 135.127 131.484C135.108 131.167 135.066 130.91 135.001 130.714C134.851 130.229 134.525 129.986 134.021 129.986C133.563 129.986 133.143 130.103 132.761 130.336C132.378 130.569 132.047 130.863 131.767 131.218C131.757 131.899 131.753 132.576 131.753 133.248C131.753 133.92 131.753 134.592 131.753 135.264V136.23C131.753 136.37 131.813 136.473 131.935 136.538C132.056 136.603 132.177 136.636 132.299 136.636C132.373 136.636 132.443 136.631 132.509 136.622C132.583 136.603 132.653 136.594 132.719 136.594C132.756 136.594 132.779 136.617 132.789 136.664C132.798 136.711 132.803 136.748 132.803 136.776C132.803 136.813 132.789 136.855 132.761 136.902C132.742 136.949 132.705 136.972 132.649 136.972C132.443 136.972 132.238 136.967 132.033 136.958C131.837 136.939 131.636 136.93 131.431 136.93C131.113 136.93 130.796 136.939 130.479 136.958C130.161 136.967 129.839 136.972 129.513 136.972C129.466 136.972 129.438 136.944 129.429 136.888C129.429 136.823 129.429 136.771 129.429 136.734C129.429 136.659 129.471 136.622 129.555 136.622C129.639 136.622 129.704 136.622 129.751 136.622C129.797 136.622 129.844 136.627 129.891 136.636C129.937 136.636 129.984 136.636 130.031 136.636C130.301 136.636 130.451 136.501 130.479 136.23C130.488 136.099 130.493 135.969 130.493 135.838C130.493 135.707 130.493 135.577 130.493 135.446C130.493 134.643 130.493 133.841 130.493 133.038C130.493 132.226 130.488 131.419 130.479 130.616C130.479 130.485 130.451 130.355 130.395 130.224C130.339 130.093 130.231 130.028 130.073 130.028C129.951 130.028 129.835 130.047 129.723 130.084C129.611 130.121 129.494 130.14 129.373 130.14C129.307 130.14 129.275 130.093 129.275 130C129.275 129.981 129.275 129.963 129.275 129.944C129.284 129.916 129.293 129.897 129.303 129.888C129.312 129.879 129.326 129.874 129.345 129.874C129.363 129.865 129.377 129.855 129.387 129.846C129.555 129.799 129.727 129.767 129.905 129.748C130.091 129.729 130.269 129.701 130.437 129.664C130.595 129.636 130.749 129.599 130.899 129.552C131.048 129.496 131.197 129.468 131.347 129.468C131.412 129.468 131.463 129.501 131.501 129.566C131.547 129.65 131.585 129.771 131.613 129.93C131.641 130.079 131.659 130.233 131.669 130.392C131.687 130.551 131.697 130.681 131.697 130.784C131.902 130.579 132.145 130.378 132.425 130.182C132.714 129.977 133.013 129.809 133.321 129.678C133.638 129.538 133.946 129.468 134.245 129.468C135.103 129.468 135.682 129.659 135.981 130.042C136.289 130.415 136.443 131.008 136.443 131.82C136.443 132.548 136.438 133.276 136.429 134.004C136.429 134.732 136.429 135.46 136.429 136.188C136.429 136.365 136.48 136.487 136.583 136.552C136.695 136.608 136.825 136.636 136.975 136.636C137.049 136.636 137.124 136.631 137.199 136.622C137.273 136.603 137.343 136.594 137.409 136.594C137.465 136.594 137.502 136.617 137.521 136.664C137.549 136.701 137.563 136.743 137.563 136.79ZM142.839 135.362C142.801 134.942 142.778 134.522 142.769 134.102C142.769 133.673 142.764 133.243 142.755 132.814H142.559C142.269 132.814 141.947 132.861 141.593 132.954C141.247 133.038 140.916 133.169 140.599 133.346C140.281 133.523 140.02 133.747 139.815 134.018C139.619 134.279 139.521 134.583 139.521 134.928C139.521 135.376 139.647 135.717 139.899 135.95C140.151 136.174 140.491 136.286 140.921 136.286C141.126 136.286 141.35 136.239 141.593 136.146C141.835 136.043 142.069 135.922 142.293 135.782C142.517 135.642 142.699 135.502 142.839 135.362ZM145.289 136.258C145.289 136.295 145.284 136.323 145.275 136.342C145.181 136.547 145.023 136.706 144.799 136.818C144.584 136.921 144.369 136.972 144.155 136.972C143.763 136.972 143.478 136.86 143.301 136.636C143.133 136.403 142.997 136.118 142.895 135.782C142.54 136.109 142.148 136.384 141.719 136.608C141.289 136.823 140.827 136.93 140.333 136.93C139.987 136.93 139.661 136.865 139.353 136.734C139.054 136.594 138.811 136.393 138.625 136.132C138.438 135.871 138.345 135.553 138.345 135.18C138.345 134.788 138.443 134.452 138.639 134.172C138.844 133.883 139.101 133.64 139.409 133.444C139.726 133.239 140.062 133.075 140.417 132.954C140.781 132.823 141.121 132.725 141.439 132.66C141.653 132.613 141.873 132.571 142.097 132.534C142.321 132.497 142.54 132.459 142.755 132.422C142.755 132.161 142.741 131.857 142.713 131.512C142.694 131.167 142.624 130.882 142.503 130.658C142.381 130.443 142.218 130.252 142.013 130.084C141.807 129.916 141.579 129.832 141.327 129.832C140.897 129.832 140.561 129.944 140.319 130.168C140.076 130.392 139.903 130.709 139.801 131.12C139.791 131.167 139.782 131.218 139.773 131.274C139.773 131.321 139.768 131.367 139.759 131.414C139.749 131.47 139.712 131.521 139.647 131.568C139.591 131.605 139.53 131.624 139.465 131.624C139.287 131.624 139.124 131.582 138.975 131.498C138.835 131.414 138.765 131.274 138.765 131.078C138.765 130.966 138.783 130.868 138.821 130.784C138.942 130.495 139.138 130.257 139.409 130.07C139.679 129.874 139.978 129.725 140.305 129.622C140.641 129.519 140.953 129.468 141.243 129.468C141.747 129.468 142.204 129.561 142.615 129.748C143.025 129.935 143.352 130.21 143.595 130.574C143.847 130.929 143.973 131.377 143.973 131.918C143.973 132.525 143.968 133.136 143.959 133.752C143.959 134.368 143.977 134.984 144.015 135.6C144.024 135.805 144.066 135.987 144.141 136.146C144.215 136.295 144.369 136.37 144.603 136.37C144.724 136.37 144.85 136.342 144.981 136.286C145.121 136.221 145.209 136.188 145.247 136.188C145.275 136.188 145.289 136.211 145.289 136.258ZM159.568 132.688C159.568 132.744 159.554 132.795 159.526 132.842C159.498 132.889 159.451 132.912 159.386 132.912H158.518V135.908C157.864 136.132 157.216 136.379 156.572 136.65C156.264 136.781 155.937 136.865 155.592 136.902C155.256 136.939 154.924 136.958 154.598 136.958C154.318 136.958 154.005 136.925 153.66 136.86C153.314 136.795 152.978 136.701 152.652 136.58C152.334 136.459 152.054 136.319 151.812 136.16C151.102 135.684 150.575 135.068 150.23 134.312C149.894 133.556 149.726 132.753 149.726 131.904C149.726 131.185 149.838 130.509 150.062 129.874C150.295 129.239 150.626 128.679 151.056 128.194C151.485 127.709 151.998 127.331 152.596 127.06C153.202 126.78 153.879 126.64 154.626 126.64C155.176 126.64 155.704 126.715 156.208 126.864C156.292 126.892 156.427 126.934 156.614 126.99C156.8 127.046 156.987 127.102 157.174 127.158C157.36 127.205 157.486 127.228 157.552 127.228C157.748 127.228 157.883 127.205 157.958 127.158C158.032 127.102 158.088 127.041 158.126 126.976C158.172 126.911 158.238 126.859 158.322 126.822H158.434C158.508 126.822 158.55 126.864 158.56 126.948C158.578 127.041 158.583 127.139 158.574 127.242C158.574 127.345 158.574 127.447 158.574 127.55C158.574 127.839 158.578 128.129 158.588 128.418C158.606 128.707 158.616 129.001 158.616 129.3C158.616 129.412 158.611 129.543 158.602 129.692C158.602 129.841 158.518 129.916 158.35 129.916C158.294 129.916 158.242 129.911 158.196 129.902C158.158 129.883 158.121 129.851 158.084 129.804C158.074 129.785 158.051 129.734 158.014 129.65C157.976 129.557 157.939 129.463 157.902 129.37C157.864 129.267 157.836 129.197 157.818 129.16C157.566 128.591 157.197 128.115 156.712 127.732C156.46 127.527 156.138 127.363 155.746 127.242C155.363 127.121 155.008 127.06 154.682 127.06C154.056 127.06 153.524 127.214 153.086 127.522C152.647 127.821 152.292 128.213 152.022 128.698C151.751 129.183 151.555 129.706 151.434 130.266C151.312 130.826 151.252 131.367 151.252 131.89C151.252 132.441 151.317 132.982 151.448 133.514C151.578 134.046 151.779 134.527 152.05 134.956C152.33 135.385 152.694 135.731 153.142 135.992C153.59 136.244 154.126 136.37 154.752 136.37C154.938 136.37 155.162 136.351 155.424 136.314C155.685 136.277 155.946 136.211 156.208 136.118C156.469 136.025 156.684 135.899 156.852 135.74C157.029 135.581 157.118 135.381 157.118 135.138V133.29C157.118 133.141 157.043 133.047 156.894 133.01C156.754 132.963 156.632 132.94 156.53 132.94C156.39 132.94 156.25 132.949 156.11 132.968C155.97 132.977 155.83 132.982 155.69 132.982C155.615 132.982 155.564 132.959 155.536 132.912C155.517 132.865 155.508 132.809 155.508 132.744C155.508 132.688 155.517 132.637 155.536 132.59C155.554 132.534 155.601 132.506 155.676 132.506C155.825 132.506 155.97 132.511 156.11 132.52C156.25 132.52 156.394 132.52 156.544 132.52H157.538C157.696 132.52 157.855 132.52 158.014 132.52C158.172 132.52 158.331 132.515 158.49 132.506C158.648 132.506 158.802 132.501 158.952 132.492C159.101 132.473 159.25 132.464 159.4 132.464C159.456 132.464 159.498 132.492 159.526 132.548C159.554 132.595 159.568 132.641 159.568 132.688ZM166.417 133.304C166.417 132.903 166.385 132.501 166.319 132.1C166.263 131.689 166.151 131.311 165.983 130.966C165.825 130.621 165.591 130.345 165.283 130.14C164.975 129.925 164.574 129.818 164.079 129.818C163.613 129.818 163.23 129.93 162.931 130.154C162.642 130.378 162.413 130.667 162.245 131.022C162.087 131.377 161.975 131.759 161.909 132.17C161.853 132.581 161.825 132.968 161.825 133.332C161.825 133.733 161.853 134.135 161.909 134.536C161.975 134.937 162.091 135.301 162.259 135.628C162.427 135.945 162.665 136.202 162.973 136.398C163.291 136.594 163.697 136.692 164.191 136.692C164.677 136.692 165.064 136.589 165.353 136.384C165.652 136.179 165.876 135.908 166.025 135.572C166.184 135.236 166.287 134.872 166.333 134.48C166.389 134.079 166.417 133.687 166.417 133.304ZM167.859 133.346C167.859 134.046 167.691 134.676 167.355 135.236C167.029 135.796 166.581 136.239 166.011 136.566C165.451 136.893 164.821 137.056 164.121 137.056C163.44 137.056 162.824 136.893 162.273 136.566C161.723 136.23 161.284 135.787 160.957 135.236C160.631 134.676 160.467 134.055 160.467 133.374C160.467 132.674 160.626 132.03 160.943 131.442C161.261 130.845 161.695 130.364 162.245 130C162.805 129.636 163.449 129.454 164.177 129.454C164.961 129.454 165.629 129.622 166.179 129.958C166.73 130.285 167.145 130.742 167.425 131.33C167.715 131.909 167.859 132.581 167.859 133.346ZM173.601 136.356C173.601 136.44 173.536 136.524 173.405 136.608C173.284 136.692 173.134 136.767 172.957 136.832C172.78 136.897 172.607 136.949 172.439 136.986C172.28 137.023 172.164 137.042 172.089 137.042C171.604 137.042 171.226 136.981 170.955 136.86C170.694 136.739 170.507 136.538 170.395 136.258C170.292 135.978 170.241 135.6 170.241 135.124C170.241 134.349 170.241 133.575 170.241 132.8C170.25 132.016 170.26 131.237 170.269 130.462H169.261C169.196 130.462 169.14 130.481 169.093 130.518C169.056 130.546 169.014 130.56 168.967 130.56C168.92 130.56 168.897 130.527 168.897 130.462C168.897 130.425 168.92 130.35 168.967 130.238C169.023 130.126 169.06 130.051 169.079 130.014C169.107 130.023 169.149 130.028 169.205 130.028H170.297L170.311 128.25C170.526 128.11 170.722 127.956 170.899 127.788C171.076 127.611 171.254 127.433 171.431 127.256C171.45 127.237 171.468 127.223 171.487 127.214C171.506 127.195 171.524 127.186 171.543 127.186C171.627 127.186 171.669 127.219 171.669 127.284L171.585 130.014C171.884 130.014 172.178 130.009 172.467 130C172.766 129.991 173.06 129.986 173.349 129.986C173.47 129.986 173.531 130.056 173.531 130.196C173.531 130.373 173.452 130.462 173.293 130.462H171.585C171.585 131.171 171.58 131.885 171.571 132.604C171.571 133.313 171.571 134.027 171.571 134.746V135.824C171.571 136.057 171.669 136.221 171.865 136.314C172.061 136.398 172.252 136.44 172.439 136.44C172.7 136.44 172.957 136.398 173.209 136.314C173.237 136.295 173.279 136.277 173.335 136.258C173.391 136.239 173.433 136.23 173.461 136.23C173.554 136.23 173.601 136.272 173.601 136.356ZM180.308 133.304C180.308 132.903 180.275 132.501 180.21 132.1C180.154 131.689 180.042 131.311 179.874 130.966C179.715 130.621 179.482 130.345 179.174 130.14C178.866 129.925 178.465 129.818 177.97 129.818C177.503 129.818 177.121 129.93 176.822 130.154C176.533 130.378 176.304 130.667 176.136 131.022C175.977 131.377 175.865 131.759 175.8 132.17C175.744 132.581 175.716 132.968 175.716 133.332C175.716 133.733 175.744 134.135 175.8 134.536C175.865 134.937 175.982 135.301 176.15 135.628C176.318 135.945 176.556 136.202 176.864 136.398C177.181 136.594 177.587 136.692 178.082 136.692C178.567 136.692 178.955 136.589 179.244 136.384C179.543 136.179 179.767 135.908 179.916 135.572C180.075 135.236 180.177 134.872 180.224 134.48C180.28 134.079 180.308 133.687 180.308 133.304ZM181.75 133.346C181.75 134.046 181.582 134.676 181.246 135.236C180.919 135.796 180.471 136.239 179.902 136.566C179.342 136.893 178.712 137.056 178.012 137.056C177.331 137.056 176.715 136.893 176.164 136.566C175.613 136.23 175.175 135.787 174.848 135.236C174.521 134.676 174.358 134.055 174.358 133.374C174.358 132.674 174.517 132.03 174.834 131.442C175.151 130.845 175.585 130.364 176.136 130C176.696 129.636 177.34 129.454 178.068 129.454C178.852 129.454 179.519 129.622 180.07 129.958C180.621 130.285 181.036 130.742 181.316 131.33C181.605 131.909 181.75 132.581 181.75 133.346ZM194.31 128.74C194.31 128.824 194.277 128.894 194.212 128.95C194.156 128.997 194.09 129.02 194.016 129.02C193.922 129.02 193.862 129.001 193.834 128.964C193.806 128.917 193.778 128.857 193.75 128.782C193.591 128.278 193.348 127.905 193.022 127.662C192.695 127.419 192.261 127.298 191.72 127.298H189.172V131.512C189.601 131.503 190.03 131.498 190.46 131.498C190.889 131.489 191.318 131.465 191.748 131.428C192.028 131.409 192.303 131.377 192.574 131.33C192.844 131.283 193.115 131.237 193.386 131.19H193.414C193.432 131.19 193.451 131.199 193.47 131.218C193.498 131.227 193.512 131.241 193.512 131.26C193.512 131.325 193.479 131.442 193.414 131.61C193.348 131.769 193.302 131.881 193.274 131.946C193.227 132.058 193.157 132.114 193.064 132.114C192.998 132.114 192.928 132.114 192.854 132.114C192.788 132.105 192.718 132.095 192.644 132.086C192.317 132.049 191.986 132.03 191.65 132.03C191.323 132.021 190.996 132.016 190.67 132.016C190.548 132.016 190.404 132.016 190.236 132.016C190.068 132.016 189.9 132.03 189.732 132.058C189.573 132.086 189.438 132.147 189.326 132.24C189.223 132.324 189.172 132.455 189.172 132.632V135.796C189.172 135.899 189.195 135.997 189.242 136.09C189.298 136.174 189.363 136.253 189.438 136.328C189.578 136.449 189.75 136.524 189.956 136.552C190.17 136.571 190.366 136.58 190.544 136.58C190.674 136.58 190.74 136.65 190.74 136.79C190.74 136.939 190.656 137.014 190.488 137.014C190.338 137.014 190.184 137.009 190.026 137C189.867 136.981 189.708 136.972 189.55 136.972C189.363 136.972 189.172 136.972 188.976 136.972C188.789 136.963 188.602 136.958 188.416 136.958C188.098 136.958 187.781 136.972 187.464 137C187.156 137.019 186.838 137.028 186.512 137.028C186.474 137.028 186.432 137.014 186.386 136.986C186.348 136.949 186.33 136.907 186.33 136.86C186.33 136.795 186.334 136.743 186.344 136.706C186.362 136.659 186.409 136.631 186.484 136.622C186.558 136.603 186.638 136.594 186.722 136.594C186.806 136.585 186.885 136.575 186.96 136.566C187.305 136.491 187.52 136.356 187.604 136.16C187.697 135.955 187.744 135.693 187.744 135.376V127.886C187.744 127.671 187.669 127.531 187.52 127.466C187.37 127.401 187.193 127.368 186.988 127.368C186.792 127.368 186.624 127.368 186.484 127.368C186.306 127.368 186.218 127.289 186.218 127.13C186.218 127.055 186.227 126.99 186.246 126.934C186.274 126.878 186.33 126.85 186.414 126.85C186.582 126.85 186.75 126.855 186.918 126.864C187.095 126.873 187.268 126.878 187.436 126.878H189.9C190.366 126.878 190.833 126.873 191.3 126.864C191.776 126.845 192.247 126.836 192.714 126.836C193.143 126.836 193.572 126.822 194.002 126.794C194.048 127.074 194.109 127.401 194.184 127.774C194.268 128.147 194.31 128.469 194.31 128.74ZM199.508 135.362C199.471 134.942 199.448 134.522 199.438 134.102C199.438 133.673 199.434 133.243 199.424 132.814H199.228C198.939 132.814 198.617 132.861 198.262 132.954C197.917 133.038 197.586 133.169 197.268 133.346C196.951 133.523 196.69 133.747 196.484 134.018C196.288 134.279 196.19 134.583 196.19 134.928C196.19 135.376 196.316 135.717 196.568 135.95C196.82 136.174 197.161 136.286 197.59 136.286C197.796 136.286 198.02 136.239 198.262 136.146C198.505 136.043 198.738 135.922 198.962 135.782C199.186 135.642 199.368 135.502 199.508 135.362ZM201.958 136.258C201.958 136.295 201.954 136.323 201.944 136.342C201.851 136.547 201.692 136.706 201.468 136.818C201.254 136.921 201.039 136.972 200.824 136.972C200.432 136.972 200.148 136.86 199.97 136.636C199.802 136.403 199.667 136.118 199.564 135.782C199.21 136.109 198.818 136.384 198.388 136.608C197.959 136.823 197.497 136.93 197.002 136.93C196.657 136.93 196.33 136.865 196.022 136.734C195.724 136.594 195.481 136.393 195.294 136.132C195.108 135.871 195.014 135.553 195.014 135.18C195.014 134.788 195.112 134.452 195.308 134.172C195.514 133.883 195.77 133.64 196.078 133.444C196.396 133.239 196.732 133.075 197.086 132.954C197.45 132.823 197.791 132.725 198.108 132.66C198.323 132.613 198.542 132.571 198.766 132.534C198.99 132.497 199.21 132.459 199.424 132.422C199.424 132.161 199.41 131.857 199.382 131.512C199.364 131.167 199.294 130.882 199.172 130.658C199.051 130.443 198.888 130.252 198.682 130.084C198.477 129.916 198.248 129.832 197.996 129.832C197.567 129.832 197.231 129.944 196.988 130.168C196.746 130.392 196.573 130.709 196.47 131.12C196.461 131.167 196.452 131.218 196.442 131.274C196.442 131.321 196.438 131.367 196.428 131.414C196.419 131.47 196.382 131.521 196.316 131.568C196.26 131.605 196.2 131.624 196.134 131.624C195.957 131.624 195.794 131.582 195.644 131.498C195.504 131.414 195.434 131.274 195.434 131.078C195.434 130.966 195.453 130.868 195.49 130.784C195.612 130.495 195.808 130.257 196.078 130.07C196.349 129.874 196.648 129.725 196.974 129.622C197.31 129.519 197.623 129.468 197.912 129.468C198.416 129.468 198.874 129.561 199.284 129.748C199.695 129.935 200.022 130.21 200.264 130.574C200.516 130.929 200.642 131.377 200.642 131.918C200.642 132.525 200.638 133.136 200.628 133.752C200.628 134.368 200.647 134.984 200.684 135.6C200.694 135.805 200.736 135.987 200.81 136.146C200.885 136.295 201.039 136.37 201.272 136.37C201.394 136.37 201.52 136.342 201.65 136.286C201.79 136.221 201.879 136.188 201.916 136.188C201.944 136.188 201.958 136.211 201.958 136.258ZM208.146 130.77C208.146 130.863 208.108 130.952 208.034 131.036C207.968 131.111 207.884 131.148 207.782 131.148C207.642 131.148 207.539 131.101 207.474 131.008C207.418 130.915 207.366 130.807 207.32 130.686C207.282 130.565 207.222 130.457 207.138 130.364C207.054 130.271 206.914 130.224 206.718 130.224C206.68 130.224 206.643 130.224 206.606 130.224C206.578 130.224 206.545 130.229 206.508 130.238C206.349 130.266 206.176 130.364 205.99 130.532C205.803 130.7 205.621 130.901 205.444 131.134C205.276 131.358 205.136 131.582 205.024 131.806C204.912 132.03 204.851 132.217 204.842 132.366C204.832 132.515 204.828 132.665 204.828 132.814C204.828 132.954 204.828 133.094 204.828 133.234C204.828 133.738 204.828 134.242 204.828 134.746C204.837 135.25 204.842 135.749 204.842 136.244C204.842 136.384 204.898 136.487 205.01 136.552C205.131 136.608 205.252 136.636 205.374 136.636C205.467 136.636 205.56 136.631 205.654 136.622C205.747 136.613 205.84 136.608 205.934 136.608C205.98 136.608 206.013 136.631 206.032 136.678C206.05 136.715 206.06 136.753 206.06 136.79C206.06 136.939 205.985 137.014 205.836 137.014C205.556 137.014 205.276 137.009 204.996 137C204.716 136.981 204.436 136.972 204.156 136.972C203.866 136.972 203.572 136.981 203.274 137C202.984 137.019 202.69 137.028 202.392 137.028C202.354 137.028 202.326 137 202.308 136.944C202.298 136.888 202.294 136.841 202.294 136.804C202.294 136.711 202.331 136.659 202.406 136.65C202.508 136.631 202.616 136.627 202.728 136.636C202.84 136.645 202.942 136.65 203.036 136.65C203.176 136.65 203.288 136.622 203.372 136.566C203.465 136.501 203.516 136.393 203.526 136.244C203.544 135.945 203.554 135.642 203.554 135.334C203.563 135.026 203.568 134.718 203.568 134.41V133.052C203.558 132.651 203.554 132.254 203.554 131.862C203.563 131.461 203.549 131.064 203.512 130.672C203.502 130.485 203.451 130.355 203.358 130.28C203.264 130.196 203.124 130.154 202.938 130.154C202.863 130.154 202.784 130.163 202.7 130.182C202.625 130.191 202.546 130.196 202.462 130.196C202.387 130.196 202.35 130.14 202.35 130.028C202.35 129.963 202.382 129.916 202.448 129.888C202.541 129.86 202.639 129.841 202.742 129.832C202.844 129.813 202.942 129.799 203.036 129.79C203.288 129.743 203.54 129.697 203.792 129.65C204.044 129.603 204.296 129.547 204.548 129.482C204.632 129.51 204.692 129.561 204.73 129.636C204.748 129.673 204.762 129.776 204.772 129.944C204.781 130.112 204.786 130.308 204.786 130.532C204.786 130.747 204.786 130.952 204.786 131.148C204.786 131.335 204.786 131.465 204.786 131.54C204.991 131.213 205.224 130.887 205.486 130.56C205.747 130.233 206.046 129.963 206.382 129.748C206.718 129.533 207.096 129.426 207.516 129.426C207.74 129.426 207.884 129.496 207.95 129.636C208.015 129.776 208.057 129.939 208.076 130.126C208.094 130.229 208.108 130.336 208.118 130.448C208.136 130.56 208.146 130.667 208.146 130.77ZM221.03 136.818C221.03 136.949 220.979 137.014 220.876 137.014C220.615 137.014 220.349 137.005 220.078 136.986C219.808 136.967 219.537 136.958 219.266 136.958C218.996 136.958 218.72 136.967 218.44 136.986C218.17 137.005 217.899 137.014 217.628 137.014C217.591 137.014 217.563 136.991 217.544 136.944C217.535 136.897 217.53 136.86 217.53 136.832C217.53 136.748 217.572 136.697 217.656 136.678C217.75 136.659 217.848 136.655 217.95 136.664C218.062 136.673 218.146 136.678 218.202 136.678C218.333 136.678 218.44 136.645 218.524 136.58C218.608 136.515 218.65 136.417 218.65 136.286C218.65 135.661 218.655 135.04 218.664 134.424C218.683 133.808 218.692 133.192 218.692 132.576C218.692 132.473 218.692 132.371 218.692 132.268C218.692 132.165 218.688 132.063 218.678 131.96C218.669 131.736 218.655 131.507 218.636 131.274C218.627 131.031 218.59 130.807 218.524 130.602C218.459 130.387 218.347 130.215 218.188 130.084C218.03 129.953 217.801 129.888 217.502 129.888C217.288 129.888 217.05 129.953 216.788 130.084C216.536 130.205 216.294 130.35 216.06 130.518C215.827 130.686 215.631 130.845 215.472 130.994C215.491 131.125 215.5 131.26 215.5 131.4C215.5 131.531 215.5 131.661 215.5 131.792C215.5 132.063 215.5 132.338 215.5 132.618C215.51 132.889 215.514 133.159 215.514 133.43C215.514 133.906 215.51 134.382 215.5 134.858C215.5 135.334 215.5 135.81 215.5 136.286C215.5 136.426 215.561 136.524 215.682 136.58C215.804 136.636 215.925 136.664 216.046 136.664C216.121 136.664 216.196 136.659 216.27 136.65C216.354 136.641 216.429 136.636 216.494 136.636C216.541 136.636 216.569 136.659 216.578 136.706C216.597 136.753 216.606 136.79 216.606 136.818C216.606 136.865 216.592 136.911 216.564 136.958C216.536 136.995 216.494 137.014 216.438 137.014C216.177 137.014 215.911 137.005 215.64 136.986C215.379 136.967 215.113 136.958 214.842 136.958C214.581 136.958 214.315 136.967 214.044 136.986C213.774 137.005 213.503 137.014 213.232 137.014C213.195 137.014 213.167 136.991 213.148 136.944C213.13 136.897 213.12 136.86 213.12 136.832C213.12 136.757 213.158 136.706 213.232 136.678C213.307 136.659 213.396 136.655 213.498 136.664C213.61 136.673 213.704 136.678 213.778 136.678C213.909 136.678 214.016 136.65 214.1 136.594C214.194 136.529 214.24 136.426 214.24 136.286V132.716C214.24 132.52 214.236 132.277 214.226 131.988C214.226 131.699 214.208 131.414 214.17 131.134C214.142 130.845 214.091 130.616 214.016 130.448C213.951 130.28 213.839 130.149 213.68 130.056C213.531 129.963 213.363 129.916 213.176 129.916C212.934 129.916 212.686 129.977 212.434 130.098C212.182 130.219 211.944 130.369 211.72 130.546C211.496 130.723 211.305 130.901 211.146 131.078V136.272C211.146 136.412 211.198 136.515 211.3 136.58C211.403 136.636 211.515 136.664 211.636 136.664C211.711 136.664 211.786 136.659 211.86 136.65C211.935 136.631 212.005 136.622 212.07 136.622C212.108 136.622 212.131 136.65 212.14 136.706C212.15 136.753 212.154 136.785 212.154 136.804C212.154 136.851 212.14 136.897 212.112 136.944C212.094 136.981 212.056 137 212 137C211.823 137 211.646 136.995 211.468 136.986C211.291 136.967 211.114 136.958 210.936 136.958C210.582 136.958 210.227 136.967 209.872 136.986C209.518 136.995 209.163 137 208.808 137C208.771 137 208.743 136.977 208.724 136.93C208.706 136.883 208.696 136.846 208.696 136.818C208.696 136.706 208.743 136.65 208.836 136.65C208.939 136.65 209.037 136.655 209.13 136.664C209.224 136.664 209.317 136.664 209.41 136.664C209.541 136.664 209.653 136.636 209.746 136.58C209.84 136.515 209.886 136.412 209.886 136.272C209.886 135.329 209.882 134.387 209.872 133.444C209.872 132.492 209.872 131.545 209.872 130.602C209.872 130.499 209.863 130.397 209.844 130.294C209.826 130.191 209.765 130.121 209.662 130.084C209.597 130.056 209.527 130.042 209.452 130.042C209.331 130.042 209.21 130.061 209.088 130.098C208.967 130.126 208.841 130.14 208.71 130.14C208.626 130.14 208.584 130.084 208.584 129.972C208.584 129.897 208.612 129.851 208.668 129.832C208.715 129.813 208.766 129.804 208.822 129.804C208.888 129.795 208.948 129.785 209.004 129.776C209.219 129.748 209.434 129.715 209.648 129.678C209.872 129.631 210.087 129.585 210.292 129.538C210.367 129.519 210.446 129.501 210.53 129.482C210.614 129.463 210.698 129.454 210.782 129.454C210.894 129.454 210.969 129.538 211.006 129.706C211.053 129.865 211.076 130.037 211.076 130.224C211.086 130.411 211.09 130.546 211.09 130.63C211.286 130.462 211.506 130.289 211.748 130.112C211.991 129.925 212.248 129.767 212.518 129.636C212.789 129.505 213.06 129.44 213.33 129.44C213.806 129.44 214.208 129.519 214.534 129.678C214.861 129.837 215.141 130.135 215.374 130.574C215.58 130.397 215.813 130.219 216.074 130.042C216.336 129.855 216.606 129.701 216.886 129.58C217.176 129.449 217.46 129.384 217.74 129.384C218.356 129.384 218.823 129.473 219.14 129.65C219.467 129.827 219.686 130.103 219.798 130.476C219.92 130.84 219.98 131.311 219.98 131.89C219.98 132.618 219.976 133.351 219.966 134.088C219.957 134.816 219.952 135.549 219.952 136.286C219.952 136.426 220.013 136.524 220.134 136.58C220.265 136.636 220.391 136.664 220.512 136.664C220.587 136.664 220.657 136.659 220.722 136.65C220.797 136.641 220.867 136.636 220.932 136.636C220.97 136.636 220.993 136.659 221.002 136.706C221.021 136.753 221.03 136.79 221.03 136.818Z" fill="#4E301B"/>
<defs>
<clipPath id="clip0_26952_3">
<rect width="55" height="55" fill="white" transform="translate(122)"/>
</clipPath>
</defs>
</svg>
